/* XPM */
static char *result[] = {
/* columns rows colors chars-per-pixel */
"64 64 200 2 ",
"   c #000000",
".  c #0A0101",
"X  c #050805",
"o  c #140000",
"O  c #130504",
"+  c #190200",
"@  c #081709",
"#  c #13150E",
"$  c #05091A",
"%  c #031715",
"&  c #191A16",
"*  c #270307",
"=  c #2C0000",
"-  c #310005",
";  c #3A0001",
":  c #22140B",
">  c #012D02",
",  c #0B2A08",
"<  c #053407",
"1  c #072812",
"2  c #132717",
"3  c #153515",
"4  c #382C1C",
"5  c #151828",
"6  c #142824",
"7  c #182E2E",
"8  c #223431",
"9  c #393B3A",
"0  c #440907",
"q  c #5C0408",
"w  c #43120E",
"e  c #581F0B",
"r  c #580E11",
"t  c #551815",
"y  c #6F0000",
"u  c #661E1C",
"i  c #791E1C",
"p  c #5E2A15",
"a  c #75211D",
"s  c #65361A",
"d  c #453A2B",
"f  c #422D32",
"g  c #713735",
"h  c #084809",
"j  c #085A0D",
"k  c #064813",
"l  c #0B5A18",
"z  c #0A6617",
"x  c #056C13",
"c  c #067C15",
"v  c #087A15",
"b  c #164328",
"n  c #0C5823",
"m  c #135A2A",
"M  c #1B4C3B",
"N  c #125532",
"B  c #21473C",
"V  c #0C6825",
"C  c #18652E",
"Z  c #0C7626",
"A  c #0D7D2B",
"S  c #127221",
"D  c #136837",
"F  c #147838",
"G  c #25603F",
"H  c #4E4327",
"J  c #594A2D",
"K  c #6D4123",
"L  c #645232",
"P  c #745532",
"I  c #7B643E",
"U  c #191251",
"Y  c #192047",
"T  c #202F47",
"R  c #200E61",
"E  c #174E43",
"W  c #18614F",
"Q  c #187546",
"!  c #1B7553",
"~  c #197F59",
"^  c #2A5F6E",
"/  c #246C71",
"(  c #454545",
")  c #6F4D4C",
"_  c #7E6743",
"`  c #70706F",
"'  c #777978",
"]  c #8C1613",
"[  c #921816",
"{  c #83201F",
"}  c #852222",
"|  c #942625",
" . c #AC2B29",
".. c #BD3231",
"X. c #CB2827",
"o. c #D82D2D",
"O. c #CC3533",
"+. c #D43534",
"@. c #DC3636",
"#. c #E72B2B",
"$. c #EA2B2B",
"%. c #E73434",
"&. c #E83535",
"*. c #E63B3B",
"=. c #EA3B3B",
"-. c #815834",
";. c #8C663B",
":. c #816B43",
">. c #8D7648",
",. c #907849",
"<. c #987E52",
"1. c #987676",
"2. c #B77F7F",
"3. c #E74444",
"4. c #E84949",
"5. c #E85757",
"6. c #CD6969",
"7. c #D27B7B",
"8. c #E66464",
"9. c #E76D6D",
"0. c #E96868",
"q. c #E77474",
"w. c #E77E7E",
"e. c #008401",
"r. c #028800",
"t. c #02850C",
"y. c #058615",
"u. c #088517",
"i. c #088816",
"p. c #078618",
"a. c #088618",
"s. c #088819",
"d. c #11871D",
"f. c #0A8621",
"g. c #0B8922",
"h. c #0E842D",
"j. c #158722",
"k. c #1C8826",
"l. c #1D8826",
"z. c #0F8435",
"x. c #12833A",
"c. c #24892C",
"v. c #2C8B34",
"b. c #348C3B",
"n. c #358C3B",
"m. c #3C8F42",
"M. c #47924D",
"N. c #4C9452",
"B. c #519656",
"V. c #57985D",
"C. c #5C9A62",
"Z. c #9F8351",
"A. c #A88B57",
"S. c #AF935C",
"D. c #B5965D",
"F. c #BC9C61",
"G. c #C39A5D",
"H. c #CB9F60",
"J. c #CCA564",
"K. c #CCAB6B",
"L. c #D3A765",
"P. c #D4AA66",
"I. c #D5B16F",
"U. c #DCB36D",
"Y. c #D8B570",
"T. c #E4BC74",
"R. c #EBC378",
"E. c #F3CB7D",
"W. c #2C578B",
"Q. c #2B648B",
"!. c #345CA6",
"~. c #878484",
"^. c #969796",
"/. c #AE8585",
"(. c #A3A3A3",
"). c #B7B7B7",
"_. c #C88B8B",
"`. c #E78181",
"'. c #E78888",
"]. c #E79494",
"[. c #C9BABA",
"{. c #E7A8A8",
"}. c #E7B6B6",
"|. c #F8CF80",
" X c #FED583",
".X c #FBD785",
"XX c #FFD986",
"oX c #C3C3C3",
"OX c #CDCDCD",
"+X c #D9D7D7",
"@X c #E6C4C4",
"#X c #E6CCCC",
"$X c #E8CCCC",
"%X c #E7D5D5",
"&X c #E9D6D6",
"*X c #E7DCDC",
"=X c #E7E6E6",
"-X c #EAE7E7",
";X c #E7E9E9",
":X c #EAEAEA",
/* pixels */
"a.y.b.a.y.i.i.a.a.a.a.a.a.a.a.a.a.u.a.a.a.p.p.a.i.a.p.a.a.y.a.a.a.a.i.a.a.a.a.a.a.a.a.a.a.a.a.a.p.i.a.a.p.a.a.a.p.a.a.a.a.f.e.~ ",
"s.t.C.l.y.i.u.a.a.a.e.u.a.a.a.a.a.a.a.a.a.a.a.a.a.a.a.a.a.a.a.a.a.a.a.a.a.p.a.a.a.p.u.p.a.a.a.a.a.a.p.a.u.a.a.a.a.a.a.a.a.f.e.~ ",
"a.s.e.y.u.u.y.i.a.y.v.d.p.a.a.a.a.a.a.a.a.a.p.a.a.a.a.a.a.a.a.u.a.a.a.p.p.u.p.a.a.a.u.a.p.a.u.a.a.p.a.a.a.a.a.a.i.p.a.a.a.g.r.x.",
"a.a.d.a.u.y.d.c t.t.C.c.y.a.a.a.a.a.a.a.u.a.a.a.u.a.a.p.p.a.a.a.a.a.a.a.a.a.a.a.a.a.p.a.a.a.a.p.a.a.a.a.a.p.a.a.a.a.a.a.a.g.y.~ ",
"a.a.u.a.a.a.e.N.n.e.e.y.p.p.p.a.a.a.a.a.a.u.a.a.p.a.a.a.a.a.p.a.a.a.a.a.a.a.p.a.a.a.p.a.p.a.a.a.a.a.a.a.a.a.a.u.a.i.y.y.a.f.e.~ ",
"a.a.a.a.a.d.e.m.v.t.d.a.u.p.a.a.a.a.a.a.p.a.a.p.a.a.p.a.a.p.a.a.a.a.p.a.a.a.a.a.a.a.a.a.a.a.a.p.p.u.a.s.u.a.a.a.a.y.j.c.y.f.r.~ ",
"a.a.a.a.a.a.s.e.t.s.y.a.a.p.a.a.a.a.a.a.a.a.a.a.a.a.a.a.a.a.a.a.a.p.a.i.a.a.u.a.p.u.a.a.u.a.a.a.a.p.y.e.a.u.a.a.s.e.m.B.e.j.e.x.",
"a.a.u.a.a.a.a.d.a.a.a.u.a.p.p.u.d.s.y.p.a.a.a.a.a.p.a.u.a.u.p.a.a.a.a.p.a.a.a.p.a.a.a.p.a.a.u.a.a.u.j.n.y.a.a.a.a.a.y.t.a.f.u.~ ",
"p.a.a.p.u.a.a.a.a.a.a.a.a.a.u.a.e.t.d.a.a.a.u.a.a.a.a.a.a.a.a.a.a.p.a.a.a.a.a.a.a.a.a.u.a.a.a.a.a.t.c.C.e.a.y.a.a.a.a.d.u.f.e.~ ",
"a.a.a.u.a.p.a.a.a.a.a.a.a.a.d.e.B.n.e.a.a.a.a.a.a.p.d.a.u.a.a.a.a.u.a.a.a.a.a.a.a.a.a.a.a.p.p.a.a.a.y.e.s.a.a.a.a.a.a.a.a.a.r.~ ",
"a.a.a.a.a.a.p.a.a.a.a.a.a.u.a.t.n.c.y.a.a.a.a.a.p.y.e.a.a.a.a.a.i.a.a.p.a.i.a.a.u.a.a.a.u.a.a.p.a.a.a.d.a.a.a.a.a.a.a.a.a.f.r.~ ",
"u.a.a.a.a.p.a.a.a.a.a.a.a.u.u.d.e.y.a.a.a.a.a.a.y.j.C.y.a.a.a.i.a.a.a.a.a.a.a.a.a.a.a.a.a.a.a.a.a.a.a.a.a.a.p.a.a.a.a.a.a.f.r.~ ",
"p.a.a.a.i.a.p.a.a.p.a.u.a.a.a.u.s.a.a.a.a.i.i.u.p.s.b.c a.a.d.d.d.v a.a.v a.i.i.a.a.a.a.a.a.a.a.a.a.a.a.a.a.a.u.p.p.p.p.a.f.r.~ ",
"a.a.a.p.a.a.a.a.a.a.a.a.a.i.a.a.a.a.a.a.a.i.i.s.a.v h , 1 > > > > > < < 3 z u.i.a.a.a.a.a.u.a.u.a.a.a.a.a.a.a.a.a.p.u.y.a.f.r.~ ",
"a.p.a.a.a.a.a.a.a.a.a.p.a.p.a.a.a.a.a.a.a.a.u.c h @       X - f f * . .   @ > x c i.i.a.a.a.a.a.a.a.a.a.a.a.a.a.a.e.M.V.e.j.e.x.",
"a.a.a.i.p.a.a.p.u.a.a.a.a.a.a.a.a.a.a.a.a.a.j X X   ; ) /.[.+X+X+X+X[.1.g -   X , x u.i.a.a.a.a.u.a.a.a.u.a.a.a.a.a.a.j.p.g.u.~ ",
"a.a.a.p.a.a.u.p.a.a.p.a.a.a.a.a.a.a.i.a.v l     w [ 7.#X=X=X;X:X:X;X=X=X@X6.] *   . > c s.a.p.p.a.a.a.p.a.a.a.a.a.a.u.y.a.f.e.~ ",
"p.a.a.a.a.a.a.a.a.a.a.a.a.y.a.a.a.p.i.x .     a X.w.&X:X=X=X=X=X=X=X=X;X;X#Xq.X.u   . < c a.a.p.a.a.a.a.i.a.p.a.a.p.a.a.p.f.r.~ ",
"a.a.a.a.a.a.a.a.a.a.a.p.a.a.a.a.a.a.x X     | @.3.#X;X=X=X;X=X;X=X=X=X=X=X;X}.4.+.a X   < u.p.p.a.a.a.u.p.a.a.a.a.a.u.a.i.f.r.~ ",
"a.a.u.p.a.a.p.a.a.a.a.a.a.a.a.a.i.a.,   X  .*.&.q.*X;X=X=X=X=X=X=X=X;X=X=X;X$X8.$.*.| X . h y.s.a.a.p.a.a.a.a.p.a.a.p.a.a.f.r.~ ",
"u.a.a.a.u.a.a.a.u.u.y.a.a.a.a.a.s.z # % | =.*.%.q.%X;X=X=X=X=X:X=X;X=X=X=X=X#X8.#.3.@.} % O z g.u.u.p.a.a.a.a.a.a.a.a.a.a.f.e.x.",
"a.a.a.a.p.a.p.a.u.d.j.y.s.a.a.i.v @   y o.=.*.%.0.%X;X=X;X=X=X=X=X=X;X=X=X;X#X8.#.*.=.o.q   3 A u.p.a.a.a.u.u.a.a.p.a.p.a.f.t.~ ",
"a.a.a.a.a.a.a.s.e.n.C.e.d.i.i.g.k . 9 _.8.#.*.=.3.@X:X=X=X=X=X=X;X=X=X=X=X:X}.*.=.*.#.9.2.8 . D f.u.p.a.p.a.a.a.a.a.s.p.s.g.t.x.",
"a.a.a.u.a.a.a.a.a.u.t.s.a.a.i.z 2   ^.=X@Xq.#.*.#.'.*X=X=X;X;X=X=X=X=X=X=X%Xq.#.*.%.w.#X=X~.  b A p.a.a.a.a.a.p.a.p.s.s.s.g.r./ ",
"p.a.u.a.a.a.a.u.a.a.a.a.u.u.s.l   8 OX-X;X@X8.%.*.&.].*X=X=X=X=X=X=X=X=X%X`.&.*.&.9.#X;X:X).#   D g.p.a.a.a.a.a.a.a.p.a.a.s.e.x.",
"a.a.a.p.a.a.p.a.a.a.a.a.u.i.h.M   ' +X-X=X;X{.#.*.=.*.'.#X;X;X=X;X:X=X@Xw.*.*.*.*.}.;X=X:X+X`   ^ z.t.a.a.a.a.a.a.a.a.a.p.f.y.~ ",
"a.a.a.a.a.p.a.p.a.a.a.a.a.t.z.M   ).:X:X=X;X#X5.%.3.*.#.8.].{.{.{.{.'.5.#.=.*.&.8.*X;X=X;X:X^.  T F a.a.a.a.a.a.p.p.p.p.s.f.t.x.",
"u.p.a.a.a.u.a.a.a.a.a.a.i.s.V 5   oX:X=X=X:X%Xq.#.*.*.*.#.#.3.4.4.3.#.#.*.*.*.&.`.*X;X=X=X:X(.  . Q s.i.i.a.a.a.e.b.C.e.j.g.i.~ ",
"a.a.a.p.a.a.a.a.a.a.a.a.u.f.m   9 OX:X=X=X;X%Xq.#.=.&.*.*.*.&.&.&.*.*.*.*.*.*.%.`.*X;X=X=X;XoX9   Q a.u.a.p.a.a.a.a.d.y.a.f.e.~ ",
"a.p.a.a.a.a.a.a.a.a.a.p.y.h.m   ( OX:X=X=X;X%Xq.#.*.*.*.*.*.*.*.*.*.*.%.*.*.=.%.`.*X;X;X=X;XoX(   Q a.u.a.a.a.a.a.a.y.a.a.f.r.~ ",
"a.a.p.a.a.a.a.p.a.a.a.a.y.g.m   ( +X:X=X=X;X%Xq.#.*.*.=.=.=.=.=.=.=.=.=.=.*.*.#.w.*X;X=X=X;XoXf . Q a.a.a.a.a.a.a.a.a.a.i.f.r.~ ",
"a.a.a.i.p.a.u.a.a.p.a.a.u.g.m   ( OX:X;X=X;X}.5.%.=.&.@.+.+.+.+.+.+.+.@.@.=.*.&.8.*X;X=X=X;XoX9   F s.a.p.a.a.a.a.a.a.p.a.f.r.~ ",
"p.a.a.a.a.a.a.a.a.a.a.a.p.f.l O   oX:X=X:X=X].$.@.O. .a r - = * + = ; r i  .+.*.3.}.:X=X-X:X(.  X A a.a.a.a.a.p.a.a.a.a.a.f.e.~ ",
"a.a.a.p.a.a.a.a.a.a.p.a.p.s.z &   ).:X;X=X}.4.@.|     X & 4 H J J H 4 &       | o.9.%X:X=X=X~.  3 Z a.a.p.a.a.a.a.a.a.a.u.f.e.~ ",
"a.i.u.a.a.a.a.i.a.p.a.a.p.p.h.n   ` +X$X{.4.o.u   d :.D.P.K.R..X.XR.K.K.S.I 4   { o.9.}.*XoXd X S a.i.a.a.a.a.a.a.u.a.p.a.f.r.x.",
"a.a.a.a.a.p.a.a.a.a.p.p.p.p.a.z #   1.8.$.@.a   P Y.E.U.T.XX X X XXX.XU.T. XJ.J   } %.=.7.)   3 c a.a.a.a.a.p.a.p.a.a.a.a.g.y.~ ",
"a.a.a.a.a.a.a.a.a.a.a.a.p.a.u.f.k .   [ O...  L R.XXE.s -.E. X XXXXXR.e ;.|.XXY.d o ..O.y   O x s.a.p.a.d.p.a.a.a.p.a.a.a.f.e.x.",
"p.a.a.a.a.a.a.a.a.p.a.a.a.a.p.a.x k # X t a   S.XXXXU.0 s L. X X XE.L.- K U.XX X>.  t #   3 k v s.a.y.y.e.s.p.a.a.a.a.p.a.f.y.~ ",
"a.a.a.t.a.a.a.a.p.a.p.a.a.a.a.a.s.f.n o   @   F. X.XJ.0 e J.XX X X XG.; p L.XX X<.      # Z s.a.a.a.y.k.N.t.d.e.y.a.j.p.a.g.t.x.",
"a.a.p.c.s.y.a.a.a.a.a.a.i.p.a.a.p.y.A N B :   F.XX.XH.0 e H.XX XXXE.G.; p L.XX XA.  2 M V f.u.a.a.a.y.k.N.t.t.b.k.y.e.a.a.g.i.~ ",
"a.a.t.C.c.y.u.u.a.p.a.u.a.a.p.a.p.p.t.x.W +   F.XX XP.w p J.XX XXX XJ.; s U.XX XZ.  6 ! g.u.a.a.p.a.a.y.e.j.e.V.b.e.C.d.u.f.e.~ ",
"a.a.a.e.u.u.p.p.a.a.a.a.a.p.a.a.a.p.i.f.D +   F.XXXXR.r P R.XX X XXXR.= ;.E.XX XZ.  7 F t.p.a.a.a.a.a.a.d.a.a.e.t.a.m.a.u.a.e.~ ",
"a.a.a.a.a.a.p.p.a.a.a.i.a.p.a.a.a.p.a.i.F B   F.XX X XP.P. X X X XXXE.L.I. X X XZ.  7 F u.p.p.u.a.a.a.i.u.a.y.d.a.a.e.a.a.f.r.~ ",
"a.a.a.a.u.a.a.p.a.a.a.a.a.a.a.u.a.a.a.y.z.G   F.XX X X X X X X X X X X X X X X X,.. 3 A i.a.a.a.a.a.a.a.a.a.a.a.a.a.a.a.a.f.r.~ ",
"p.a.a.i.a.p.a.a.i.a.a.a.a.a.a.a.u.a.u.y.f.C . >.E.XX X.X.X X X X X X X X X XXXE.L   3 A i.i.a.a.p.a.a.a.a.a.a.i.p.a.a.a.a.f.r.~ ",
"a.a.a.a.a.a.a.a.i.i.a.a.a.p.a.a.a.a.a.u.g.V X X S.E. XXX.X.X.X X XXXXXXXXX XR.Z.  @ D a.i.a.a.a.a.a.a.p.a.a.p.a.a.a.a.a.p.f.r.~ ",
"a.a.a.p.p.p.a.a.d.t.u.a.a.a.a.i.a.a.a.a.i.z     X _ I.E.|.|.|..X.XE.E.E.E.K.L     1 A a.a.a.a.p.a.a.a.u.a.p.a.p.a.a.a.a.y.f.r.~ ",
"p.a.a.a.a.u.a.y.c a.u.a.a.p.a.a.a.a.a.i.y.h.n %     O J _ _ Z.S.S.<.:.I H X   @ 1 Z a.a.p.a.a.a.a.p.a.a.a.a.a.a.i.a.a.a.a.f.r.~ ",
"a.a.u.a.a.a.y.c.N.e.a.a.a.a.a.a.a.a.a.a.a.i.A F b 5 U   .                 $ 6 m F a.p.a.a.i.a.a.a.a.u.a.a.a.a.p.a.a.a.a.a.s.e.~ ",
"a.a.a.p.a.a.y.j.M.t.d.a.a.a.a.a.a.a.u.a.a.a.p.a.A / W.7 U R R R R R R Y 6 E ! f.y.a.a.a.p.a.a.p.a.p.a.a.p.a.a.u.a.a.a.p.p.f.e.~ ",
"a.a.a.a.a.a.a.y.e.a.s.a.a.a.a.a.a.a.a.a.a.a.a.u.p.y.y.! Q.!.!.!.!.!.!./ Q A y.a.a.a.a.a.a.a.a.a.u.a.p.a.a.a.a.a.a.a.a.a.a.g.r.x.",
"u.p.a.a.a.a.p.a.a.a.a.a.a.a.a.a.a.a.a.a.a.a.a.a.p.p.p.y.r.r.e.e.r.r.e.r.y.p.a.a.a.p.p.a.a.a.a.a.p.a.a.a.a.p.u.a.p.a.u.a.a.g.y.~ ",
"a.a.p.a.a.a.a.a.a.a.a.a.a.a.a.a.a.a.a.a.u.a.a.a.a.a.a.p.s.f.f.a.f.f.f.a.a.a.a.a.a.a.p.a.a.a.a.p.a.a.a.a.p.a.a.a.a.a.a.a.a.f.e.~ ",
"a.p.a.a.a.a.a.a.a.a.a.a.a.a.a.a.a.a.a.a.a.a.a.a.p.a.a.a.a.a.p.a.s.a.a.a.a.p.p.a.a.a.a.i.a.p.a.u.a.a.a.a.a.a.p.a.a.a.a.a.a.f.t.~ ",
"a.a.p.a.y.a.a.a.a.a.a.a.a.a.d.p.a.a.a.a.a.a.a.a.a.a.a.a.a.p.a.a.a.a.a.a.a.a.a.p.a.a.a.a.a.a.p.a.p.a.a.p.i.p.a.a.a.a.a.a.a.g.r.x.",
"a.a.a.u.a.a.a.a.u.a.a.a.a.u.e.a.s.y.p.a.a.a.a.a.a.a.p.a.a.a.a.a.a.a.a.a.i.a.a.a.a.a.p.a.a.u.a.a.a.a.u.a.a.a.a.a.a.i.a.a.a.h.t.~ ",
"a.a.a.a.a.a.a.a.a.a.a.a.y.c.C.e.e.d.u.a.a.a.a.a.a.a.u.a.a.a.p.a.a.a.a.a.a.a.a.p.y.u.u.i.i.a.a.a.u.a.a.a.a.i.a.a.a.a.a.a.p.f.e.~ ",
"a.s.a.a.a.a.a.y.a.p.a.a.a.d.v.c.n.t.a.a.a.a.a.a.a.p.a.a.u.a.a.a.a.a.a.a.a.y.e.k.d.t.i.i.a.a.a.p.p.a.a.a.p.a.a.a.a.a.a.i.a.f.r.~ ",
"a.e.a.a.a.a.a.a.a.a.a.p.e.u.c b.B.e.d.a.a.a.a.a.a.a.p.a.p.a.a.a.a.a.a.a.y.c.c.B.M.c a.a.a.a.a.a.a.a.a.d.a.a.a.a.a.a.a.a.i.f.r.~ ",
"a.m.y.a.a.a.a.a.a.p.p.u.V.s.u.e.e.a.y.a.a.a.a.a.a.p.a.a.a.a.a.p.p.a.a.a.e.v.V.e.d.s.a.p.a.a.u.a.p.u.a.e.e.d.a.a.a.a.p.a.a.f.r.~ ",
"j.V.y.a.a.u.a.a.a.a.a.a.M.s.u.d.d.u.p.a.a.a.a.a.a.a.p.a.a.a.i.a.a.a.u.a.a.y.e.a.a.a.u.a.a.p.a.a.a.d.e.N.M.e.d.a.p.a.a.a.a.f.r.~ ",
"u.e.a.a.a.a.a.a.a.a.a.a.e.u.u.u.p.a.p.p.u.a.p.a.u.a.a.a.p.a.a.a.a.a.p.a.p.a.j.a.a.a.a.a.a.a.u.a.a.a.y.c.c.y.a.a.a.a.a.a.p.f.r.~ ",
"a.d.a.a.a.a.a.a.a.a.a.a.a.a.u.a.u.a.a.a.a.p.a.a.a.a.a.a.a.a.a.u.a.p.a.a.a.a.u.a.a.a.u.a.a.a.a.p.a.p.u.t.t.s.p.p.a.a.a.a.y.f.r.~ ",
"a.u.a.a.a.a.a.a.a.a.a.a.a.a.a.a.a.a.p.a.a.a.p.a.a.i.a.p.a.p.a.a.a.a.p.a.a.a.p.u.p.a.a.a.p.a.a.a.a.a.a.a.a.p.a.a.a.i.a.a.a.f.r.~ "
};
