/* XPM */
static char *result[] = {
/* columns rows colors chars-per-pixel */
"64 64 237 2 ",
"   c #070804",
".  c #270000",
"X  c #3A0900",
"o  c #053607",
"O  c #283B00",
"+  c #393503",
"@  c #2C2F14",
"#  c #39382A",
"$  c #4D0604",
"%  c #462C14",
"&  c #540C26",
"*  c #660B35",
"=  c #562626",
"-  c #004605",
";  c #194A08",
":  c #015605",
">  c #185909",
",  c #254904",
"<  c #275309",
"1  c #325B15",
"2  c #026A01",
"3  c #037605",
"4  c #007C00",
"5  c #006B14",
"6  c #136211",
"7  c #007415",
"8  c #007B16",
"9  c #00761B",
"0  c #187717",
"q  c #2C6B12",
"w  c #2C6B18",
"e  c #25791C",
"r  c #005533",
"t  c #3B672D",
"y  c #2A7C23",
"u  c #594A0D",
"i  c #4D5211",
"p  c #665A11",
"a  c #58691D",
"s  c #796513",
"d  c #514C3A",
"f  c #6B5838",
"g  c #4C6C3C",
"h  c #003462",
"j  c #7C0145",
"k  c #711248",
"l  c #733047",
"z  c #344E4D",
"x  c #176241",
"c  c #197F59",
"v  c #305266",
"b  c #3A687B",
"n  c #595E53",
"m  c #725454",
"M  c #766A58",
"N  c #726A6C",
"B  c #85510B",
"V  c #9B7800",
"C  c #8B7413",
"Z  c #887718",
"A  c #A7740B",
"S  c #8D5835",
"D  c #906E30",
"F  c #881D52",
"G  c #8C2E54",
"H  c #943262",
"J  c #A8376D",
"K  c #B43D77",
"L  c #8D4D55",
"P  c #95744F",
"I  c #944C6B",
"U  c #985A76",
"Y  c #A74573",
"T  c #B6457C",
"R  c #A95A7D",
"E  c #90706C",
"W  c #A66A69",
"Q  c #CA7054",
"!  c #CD4E78",
"~  c #008401",
"^  c #028800",
"/  c #00850C",
"(  c #038A0A",
")  c #198806",
"_  c #048615",
"`  c #0B8517",
"'  c #038915",
"]  c #058618",
"[  c #088618",
"{  c #028919",
"}  c #0B8A1A",
"|  c #148717",
" . c #12861C",
".. c #19861C",
"X. c #138A1B",
"o. c #1B8A19",
"O. c #278D15",
"+. c #098620",
"@. c #0C8B21",
"#. c #178823",
"$. c #1C8924",
"%. c #268528",
"&. c #24892C",
"*. c #2C8B33",
"=. c #338C3A",
"-. c #388F3F",
";. c #3D8F43",
":. c #48924D",
">. c #4C9452",
",. c #55975A",
"<. c #5C9A62",
"1. c #9A850F",
"2. c #B99502",
"3. c #B08D14",
"4. c #988525",
"5. c #BC9A28",
"6. c #A98C33",
"7. c #B6A126",
"8. c #C8960F",
"9. c #C7A800",
"0. c #D5A603",
"q. c #D2B010",
"w. c #E3B703",
"e. c #EAB519",
"r. c #C99923",
"t. c #D09F24",
"y. c #C9AA29",
"u. c #D7B726",
"i. c #E7AC22",
"p. c #E6B928",
"a. c #DBC408",
"s. c #F1D009",
"d. c #FBE203",
"f. c #FFE610",
"g. c #DCC229",
"h. c #E8C52B",
"j. c #F3C527",
"k. c #F5CC2A",
"l. c #EED32B",
"z. c #F5D62B",
"x. c #FAD42D",
"c. c #FDDB2F",
"v. c #EAC934",
"b. c #F9CC30",
"n. c #FDDA31",
"m. c #FFE429",
"M. c #FFE331",
"N. c #FFEA33",
"B. c #FFE838",
"V. c #968355",
"C. c #B1904F",
"Z. c #968877",
"A. c #AD8F73",
"S. c #CA9963",
"D. c #CB8B71",
"F. c #07508F",
"G. c #006487",
"H. c #006FAE",
"J. c #2678A7",
"K. c #A93E83",
"L. c #B25184",
"P. c #807A80",
"I. c #A86787",
"U. c #B4698C",
"Y. c #B6738E",
"T. c #B97896",
"R. c #CA4D86",
"E. c #CD518C",
"W. c #D4568D",
"Q. c #D95896",
"!. c #E65A9C",
"~. c #C7769C",
"^. c #E6629B",
"/. c #E4619D",
"(. c #EE7296",
"). c #E85CA1",
"_. c #DA6FA1",
"`. c #CC7EA3",
"'. c #D97CA5",
"]. c #E564A4",
"[. c #ED65A3",
"{. c #EE6AA4",
"}. c #F16BA6",
"|. c #F46DA9",
" X c #F96FAC",
".X c #F172B1",
"XX c #F86BC4",
"oX c #1B87B4",
"OX c #688B93",
"+X c #898C9B",
"@X c #A58C82",
"#X c #B89B87",
"$X c #BA8297",
"%X c #9B9BA8",
"&X c #A6A8B5",
"*X c #C69693",
"=X c #CDAE96",
"-X c #C888A8",
";X c #D38AAC",
":X c #D695B6",
">X c #E383AD",
",X c #E889B6",
"<X c #E995BA",
"1X c #D7B8A9",
"2X c #E7AEB6",
"3X c #ECC5B1",
"4X c #EBC8B5",
"5X c #F7D4BE",
"6X c #9AADC9",
"7X c #B7B8C2",
"8X c #EA99C2",
"9X c #F897CA",
"0X c #F69AC9",
"qX c #EAA5C7",
"wX c #F2A4C9",
"eX c #FBA3CD",
"rX c #EFAAD1",
"tX c #FDA5D2",
"yX c #F5A9D2",
"uX c #FEACD5",
"iX c #FFADDA",
"pX c #F3B1D3",
"aX c #FEB3D6",
"sX c #FFB6DB",
"dX c #FFBADE",
"fX c #FFB6E0",
"gX c #FFBEE2",
"hX c #BFC0CA",
"jX c #C3C3CA",
"kX c #CBCDD3",
"lX c #D7D6DC",
"zX c #FBD9C4",
"xX c #FEDBC5",
"cX c #FFE3CD",
"vX c #DEDEE2",
"bX c #FFC1E5",
"nX c #E9E6E8",
/* pixels */
"[ _ =.` ] ] [ [ [ [ [ [ [ [ [ [ [ [ [ [ [ [ [ [ [ [ [ [ [ [ [ [ _ [ [ [ [ [ [ _ [ [ [ ] [ [ [ [ [ [ [ [ [ [ [ [ [ [ [ [ [ +.^ c ",
"} / <.$._ [ [ [ [ [ ~ _ [ [ [ [ ] [ [ [ [ ] [ [ [ [ ] [ [ [ [ [ [ [ ] [ [ [ [ [ [ [ [ [ [ [ [ [ ] [ [ [ [ _ [ [ [ [ [ [ [ +.^ c ",
"[ [ ~ ] [ [ _ #.` _ =.#.] [ [ [ [ [ [ [ [ [ [ [ [ [ [ [ [ ] [ [ [ [ [ [ [ [ [ [ [ ] [ [ [ [ ] [ [ [ [ ' [ [ [ [ [ [ [ [ [ +.^ c ",
"[ [  .[ [ ] ` ~ _ ~ <.$._ [ ] [ [ [ [ ] [ [ [ _ [ [ [ [ [ [ [ [ [ [ [ [ [ [ [ [ [ [ [ [ [ [ [ [ [ [ [ [ [ [ [ [ _ [ [ [ [ +.^ c ",
"[ [ [ [ [  .~ >.-.~ ~ _ ] ] [ [ [ [ [ [ ] [ [ [ _ [ [ [ [ [ ] [ [ [ ` ` [ _ [ [ [ [ [ [ [ [ [ [ [ [ [ [ [ [ [ [ ] _ _ _ [ +.^ c ",
"] [ [ ] [ } ~ ;.*./  .[ [ [ [ [ [ [ [ [ [ [ [ [ [ [ ] [ [ [ ] ` [ [ _ [ } ` [ ` [ ] [ [ [ [ ] [ [ [ [ } [ [ [ [ [ _ #.&._ +.^ c ",
"[ [ [ [ [ [ ` ~ / } ] [ [ [ [ [ ] [ [ [ [ [ [ [ [ [ [ [ [ [ [ ` [ }  .0 } `  .{ ' [ [ [ [ [ [ [ [ [ _ ~ [ [ [ _ } ~ ;.,.4 +.~ =.",
"[ [ [ [ [ [ ] ` } _ [ [ [ [ [ _  .} ] [ [ [ ] [ [ [ [ [ _ [ [ } | } t B < } ] 0 e { [ ] [ [ [ [ [ ' ..=._ [ [ [ ` ` _ ~ +.+._ c ",
"[ [ [ [ [ [ [ [ ` ` [ [ ] [ _  .~ / } [ [ [ [ [ [ [ [ [ [ ` } w % - V f.3.o p B q ' ` [ [ [ [ ] [ / &.<.~  .] [ [ ] [  .] +.~ =.",
"[ [ [ _ ] [ [ [ [ [ [ [ [ [  .~ >.=.~ ` [ [ [ [ [ [  .[ [ ` X.2 3.9.D.D.h.u.q.D 6 ` ` [ [ [ [ [ [ ` _ ~ } _ [ [ [ [ [ [ [ +._ c ",
"[ [ [ [ [ [ [ [ [ [ [ [ ] ] [ / ;.&._ [ [ [ [ [ [ ] ~ [ [ +.) r 4.s.`..XQ s.2.J.b 4 +.[ [ [ [ [ [ [ [  .[ [ [ [ [ [ [ ] [ +.~ c ",
"[ [ [ [ [ [ [ [ [ [ ] ] [ ` ` } ~ _ [ [ [ [ ] [ _  .<._ [ +.^ v M w.! (.S.0.m H.v ) #._ [ [ ] [ [ ] [ _ [ [ [ [ [ [ [ [ [ +.~ c ",
"[ [ [ [ [ [ [ [ [ _ [ [ [ [ [ _ ` } [ [ [ [ [ [ [ } =._ ]  .4 h d 1.D L S 1.4.D d - _ o.] ] [ [ [ [ [ [ [ [ [ ] [ [ [ ` [ +.^ c ",
"] [ [ [ [ [ [ _ [ [ [ [ [ [ [ [ [ [ [ [ [ [ [ [ [ ] ~ [  .5 i q.l.l.7.9.l.m.M.m.l.y.u 7 o.] [ [ [ [ ] [ [ [ [ [ [ [ _ _ [ +.~ c ",
"[ [ [ _ ] [ [ [ [ [ [ [ [ [ [ [ [ [ [ [ [ [ [ [ ` ` `  .{ i h.N.N.N.M.N.N.M.M.M.B.N.l.p 5 o.[ [ [ [ [ [ ] [ [ [ ` ~ :.,.3 +.^ =.",
"[ [ [ [ [ [ [ [ [ [ [ ] [ [ [ [ ] [ [ [ [ [ [ [ { } o.O.: y.N.c.m.M.M.M.M.M.M.M.N.c.B.l.u 8 O.[ } [ [ [ [ [ [ [ [ [ +.@.{ +._ c ",
"[ [ [ _ [ [ [ [ [ [ [ [ [ [ [ ] [ [ [ [ ] [ [ ' ..7 8 : s n.M.M.M.M.M.M.M.M.z.M.M.M.M.N.g.@ 8 X.[ 8 ] [ ] [ [ [ [ [ ] _ [ +.^ c ",
"[ [ [ [ [ [ [ [ [ [ ] [ [ [ [ [ [ [ [ [ [ [ ` ' 0 u Z 3.l.B.M.M.M.M.M.M.M.M.l.c.M.M.M.M.N.h.p < > i 0 ] ` [ [ [ [ ] [ [ [ +.^ c ",
"[ [ [ [ [ [ [ [ [ [ ] [ [ [ [ [ [ [ ] [ ] [ [ o.8 Z N.N.B.M.M.N.M.M.M.N.M.n.k.c.M.M.M.M.m.M.x.p.h.s 8 X.[ [ [ [ [ [ [ ] [ +.^ c ",
"[ ] [ [ [ ] [ [ [ [ [ [ [ ] [ [ [ [ [ [ [ [ ] | [ ; g.N.M.l.l.B.M.M.M.M.n.k.u.z.M.M.M.M.M.x.k.c.u.< } } [ [ ] [ [ [ [ [ [ +.^ c ",
"[ [ [ _ [ [ [ _ [ ] _ [ [ [ [ [ [ [ ] [ [ [ [ ] X.< . v.N.z.u.B.n.N.n.x.b.i.V M.M.M.M.c.x.k.x.4.  0 } [ [ [ [ [ [ ] [ [ [ +.~ =.",
"[ [ [ [ [ [ [ [ ]  .#.] [ [ [ [ [ [ [ [ [ ]  .X.8 p g.z.N.B.1.w.n.b.b.b.0.C.E w.B.c.c.x.b.j.j.u.Z > } [ [ [ [ [ [ ] ] [ [ +._ c ",
"[ [ [ [ [ [ [ } ~ =.<.~  .[ _ [ [ [ [ [ ]  .~ ~ X.; h.N.M.j.C.A.8.w.0.3.A.3X2XZ c.x.k.k.p.p.i.p.C 5 ..[ [ [ [ [ [ [ [ [ [ +.~ c ",
"[ [ [ [ [ [ [ [ [ _ / [ [ [ [ [ ] [ [ ]  .~ >.=.( 8 s e.p.8.A.zX1XA.A.*X3XxXcX=X3.h.3.0.i.p.i.A : #.[ [ [ [ [ ] [ [ [ [ [ +.~ c ",
"[ [ [ [ [ [ [ [ [ [ } [ [ [ [ [ [ [ [ [ } ~ :.*./ ..8 i 3.w.Z.Z.=XcXxX4Xd 4XxXzXA.s.C.Z.C.r.A 6 } ` [ [ [ [ [ [ [ ] _ [ [ +.^ =.",
"[ ] [ [ [ [ [ [ [ ] [ [ ] [ [ [ [ [ [ [ [ } ~ / ` _ o.' a s.A.E E cXxX5X  =XxXzX#Xd.y.4XA.w.4.5 o.[ [ _ [ [ [ [ [ [ [ [ [ +._ c ",
"[ [ [ [ [ [ [ [ ] [ [ [ [ [ [ [ [ [ ] [ [ [  .[ ] _ X.5 p s.A.@X#XcXxX5Xn 3XxXzX#Xd.7.1XS.f.7.5 O. ._ [ [ [ [ [ [ _ [ [ ] +.~ c ",
"[ [ [ _ _ [ [ [ [ [ [ [ [ [ [ [ [ [ [ [ ] [ [ [ [ ' 1 C u.s.V.5XcXxXcXxX5XxX5X1Xy.N.C.F.g.N.g.- 7 > e { [ ] [ [ / =.<.~ #.+.~ c ",
"[ [ [ [ _ [ [ [ [ [ [ [ [ [ [ [ [ ] [ [ [ [ [ [ [ o.: 5.n.c.D 4XxX5X*XxXzX5X5XV.j.w.Z.6X4.z.k.y.4.B 7 X.[ [ [ [ [ [  .] ] +.~ =.",
"[ [ [ [ [ [ ] [ [ [ [ [ [ [ _ [ [ [ [ [ [ ] [ [ [ [ { > p v.9.P xX5XG 5XxXxX4XP 2.M J.oX6.j.p.p.x.Z 8 o.[ [ [ [ [ ] ] [ ] +._ c ",
"[ ] [ [ [ [ [ [ [ _ [ [ ] [ [ [ [ [ [ [ [ [ [ ] [ [ ` { ; u.x.1.f 3X3XxX4X#X& V 9.f G.V.a.j.p.u.1.o o.] [ [ [ [ [ [ [ [ ] +.~ c ",
"[ [ [ [ [ [ [ [ [ [ [ [ [ [ [ [ [ [ ] [ [ [ [ [ [ [ | _ a 9.P ~.U & Z.Z.= H L.f *X-Xl 2.v.i.p.4.p i _ } [ [ ] [ [ [ [ [ ] +.~ c ",
"[ [ _ [ [ [ [ [ [ [ [ [ [ [ [ [ [ [ [ [ ] [ [ ] [ ] [ @.< I yXsXT.L D $XpXbX$X:XbXaXtXI 2.p.t.u.u.i { } ] [ [ [ [ [ [ ] [ +.~ =.",
"[ [ [ [ [ [ [ [ [ [ [ _ ] [ [ [ [ [ [ ] [ [ [ ` [ ] ..^ d 0XuXI.M Z.N 5.pXqX$XbXsXuXtX9XL 8.t.q.p 5 X.[ [ [ [ [ [ _ [ [ [ [ _ c ",
"[ [ [ [ [ [ [ [ [ [ [ [ [ [ [ ] [ ] [ [ [ [ [ } [ ` %.2 U.tX-XT.E 6XH.1.2X:X:XbXdXdXeX9XR 9.r.t.Z 8 o.[ [ [ [ [ [ [ [ [ ] +./ c ",
"[ [ [ [ [ ] _ [ [ [ [ [ [ [ [ [ [ [ [ [ ` ` [ #.$.$.&.2 ~.9XT.-Xn H.H.A 2X:X:XbXdXsXtX9XR 8.r.r.Z 8 o.[ [ [ [ [ [ [ [ [ ] +.~ c ",
"[ ] [ [ [ [ [ [ [ [ [ [ ] [ [ [ [ [ [ } _ #.0 2 : : : : m Y.W -XP OXA.6.0XwXY.fXaXpX-X~.L 8.3.r.p ' | ` ` [ [ [ [ ] [ ] [ +.~ =.",
"[ [ [ [ [ [ [ [ ] [ [ [ [ [ [ [ [ [ ` { y ; & U Y.T.Y.U . A.1X-X*X2.6.:XiXiX`.-X:XI.=XN L A r.r.q { ` _ ~ ` ] [ [ [ [ ] [ +._ c ",
"[ [ [ / [ [ [ [ [ [ [ [ [ [ [ ] ] [ +.w X I.rXdXbXbXgXdXqXU $ I iX8X0XsXuXeX0XI.G #X=X:X7XB y.C 5 o._ $.>./ ` ~ _ [ #.] [ +.~ c ",
"[ [ ] &.} _ [ [ [ [ [ _ [ [ [ [ ` @.w $ ;XbXbXdXsXdXsXaXdXdX2X& U.iX<X`.U.L.L.I V N &XlXlX<.3.i ' } _ $.>._ _ =.$._ ~ ] [ +.~ c ",
"[ } / <.$._ [ ] [ [ [ [ [ [ ` ` { y $ :XgXbX<X<XbXdXdXdXaXaXdXpXm l E.E.).{.}.Q.L D 7XnXvX7X# y } ] ] _ ~ #.~ ,.=.~ <. ._ +.~ c ",
"[ ` ` ~ [ [ [ [ [ [ _ [ [ [ ` _ y $ :XbXgX8X;XdXdXdXdXdXdXaXaXsXfXU.E..X}.{.{.|.Q.B m lXnXvXP.- ` ..[ ]  .[ ` ~ / [ -.} ` +.~ c ",
"[ [ [ ` [ [ [ [ ] [ [ [ [ [ _ %.. -XfXgXwX;XbXdXdXdXdXdXdXaXaXaXiXfX-XK.)./.[.).Q.L.S n kXnXlX%Xz + y { [ ] [  .[ [ ~ ] { +.^ =.",
"[ [ ] [ [ [ [ [ ] [ [ [ [ ` #.; I.dXgXqX'.dXdXsXdXdXdXdXdXsXaXaXiXtXfX;XK ).E.W.!.[.Y V N kXvXvX7Xz ~ ` [ [ [ ] [ [ } ` 8 +._ c ",
"[ [ [ [ [ [ [ [ ] [ [ ` } ] q * pXbXyX`.sXdXdXdXdXdXdXdXdXdXaXaXiXuXeXaX:XT !.].Q.E.L.S A P.vXkXkX+X3 o.[ [ [ [ [ [ ] [ [ +.~ =.",
"[ [ [ [ ] [ [ [ [ ] [ } _ %.o -XbXsX'.aXdXdXdXdXdXbXdXdXbXpX<XsXuXuXeXeXdXqXU.E.[. X.XJ p % hXjXjX&X2 X.] [ [ [ [ [ [ [ [ +._ c ",
"] [ [ ] [ [ [ [ #._ [ ] y O j <XbX:XqXbXdXdXdXdXdXdXdXsXbXwX>XdXuXiX,X0XyXsXqX:XL.L.).H ~ 4 n v &X%X2 $.] [ [ [ [ [ [ [ ] +./ c ",
"[ [ [ [ [ ] [ _ ~ ` ] e X J (.!._.>XbXdXdXdXdXdXdXdXdXsXbXwX<XsXuXiX,X,XtXpXT.uX9X:Xk t ' o.] 9 5 x ' ] [ [ [ [ ] [ [ [ ] +.~ c ",
"[ [ _ [ [ [ _ &.>.~ y = R.|.[.}.! Q.,XuXgXgXsXfXdXdXdXdXgXwX<XsXuXiX0X'.0XiX-X`.fXY.O @.} ]  .}  ._ ` [ [ [ [ ] [ [ [ [ [ +.^ c ",
"[ [ [ [ [ [ _ #.:.( w * W.}. XQ.W.|.).).,XyXfXgXgXdXdXdXdXwX<XaXuXtXtX'.8XeXqXI I.. %.] ` [ [ ` [ [ [ [ [ [ [ [ [ [ [ [ [ +.^ c ",
"[ [ [ [ [ [ [ _ ~ ` [ w $ H R.R.|.{.{.{.).).].8XyXfXgXgXgXwX<XaXiXtXuX>X8X9XtXl - %._ [ ` ] [ [ [ [ [ [ [ [ [ [ [ [ _ [ [ +.^ c ",
"[ [ [ [ [ [ [ [ } [ [ { 0 > O * R.|.|.{.}.}.[.).).].,X,X8X>X>XeXtXeXiX.X'.9X8XL <  .` [ [ [ [ [ [ ] [ [ [ [ _ [ [ [ [ [ [ +.^ c ",
"[ ] [ [ [ [ [ _ ] [ [ ` { #.$.w X G W.{.|.}.}.}.{.[.^.!.).W.W.!.).].].Q.R.!.!.!.j q _ ` ` ` ] [ [ [ [ [ [ [ [ [ [ [ _ [ [ +.^ c ",
"[ [ [ [ [ [ [ [ [ [ [ [ [ `  .^ n L.l G R.^.}.|.|.}.}.}.}.!.^.}.{.[.}.^.W.|.}. XW.+ .._ } [ [ ] [ [ _ [ [ [ [ [ [ [ [ [ ] +.^ c ",
"[ [ [ [ [ ] [ [ [ [ [ [ [ ] $.^ m XXU o l l H T W.^.{.|. X!.!.|.|.|.|.}.W. X|.|.{.j q ] ` [ ] [ ] [ [ [ [ [ [ [ [ [ [ [ [ +.^ c ",
"[ [ [ _ [ [ [ [ [ [ [ [ [ _ ~ ( n l 4 g XXE.- , % * k H J J T W.Q.Q./.W.Y E.R.K F = e _ [ [ [ [ [ [ [ [ [ [ [ ] [ [ [ [ [ +.^ c ",
"[ [ ] [ [ ] [ [ [ [ [ [ _ $.<.~ 4 ~ ( g K.g _ #.o.0 2 2 2 > , + % = = % + + O : 2 | ' ` [ ] [ [ [ [ [ [ [ [ [ [ [ [ [ [ [ +.^ c ",
"[ ` [ [ [ [ [ [ [ _ [ [ }  .*.&.-.` } 0 3 ~ .._ ] ]  . ... .......0 ....#.../ %.#._ [ [ [ [ [ [ [ [ [ [ ] [ [ [ ] [ [ _ [ +.^ c ",
"[ ~ [ [ [ [ [ [ [ [ [ [ 4 } 4 ;.,.~  .] #. ._ [ [ } ` } [ ` [ [ [ ] [ } _ &.&.>.:.4  ._ [ [ [ [ [ [ [ } ` [ [ [ [ [ [ [ [ +.^ c ",
"` ;._ [ [ [ ] [ [ [ [ ] ,.@.` ~ ~ ` _ [ ` ` [ [ [ [ [ [ [ [ [ [ [ } [ ` ~ =.,.~ } [ [ [ [ [ ] [ [ ] ` ~ ~  ._ [ [ [ [ [ [ +.^ c ",
"$.<._ _ [ [ [ [ [ [ [ [ :.} [ }  .] [ [ [ [ [ [ [ [ [ [ [ [ [ [ [ [ [ [ [ _ ~ ` [ [ [ [ [ [ [ [ [ #.~ :.:.~  .[ [ _ [ [ [ +.^ c ",
"] ~ [ [ [ ] [ [ [ [ [ [ ~ ] ` ` ] [ [ [ [ ] [ [ [ [ ] [ ] [ [ [ [ [ [ [ [ [ #.[ [ [ [ [ [ ] [ [ [ [ _ &.&._ [ [ [ [ [ [ [ +.^ c ",
"[  .[ [ [ [ [ [ [ [ [ [ ` ] [ [ [ [ [ _ [ [ [ [ [ [ [ [ [ [ [ [ _ [ [ ] [ [ _ [ [ [ [ _ [ [ [ [ [ ] [ / / } ] [ [ [ [ [ [ +.^ c ",
"[ _ [ [ [ [ [ [ ] [ [ [ [ ] [ [ [ [ [ [ [ [ [ ] [ [ [ [ [ [ [ [ [ [ [ [ [ [ ] [ [ [ [ [ [ [ [ [ [ [ [ } [ [ [ [ [ [ ] [ [ +.^ c "
};
