/* XPM */
static char *result[] = {
/* columns rows colors chars-per-pixel */
"64 64 131 2 ",
"   c #197F59",
".  c #008200",
"X  c #008300",
"o  c #008400",
"O  c #028700",
"+  c #008402",
"@  c #008403",
"#  c #008404",
"$  c #008405",
"%  c #008406",
"&  c #008407",
"*  c #008507",
"=  c #038800",
"-  c #008508",
";  c #008509",
":  c #00850A",
">  c #00850B",
",  c #00850C",
"<  c #00850D",
"1  c #00850E",
"2  c #00850F",
"3  c #008510",
"4  c #008511",
"5  c #008512",
"6  c #008513",
"7  c #018513",
"8  c #018514",
"9  c #028514",
"0  c #018614",
"q  c #028614",
"w  c #028615",
"e  c #038615",
"r  c #048615",
"t  c #048616",
"y  c #058616",
"u  c #068617",
"i  c #078617",
"p  c #078618",
"a  c #088618",
"s  c #098618",
"d  c #098619",
"f  c #0A8619",
"g  c #0B8619",
"h  c #0B861A",
"j  c #0C861A",
"k  c #0C861B",
"l  c #0D861B",
"z  c #0E861B",
"x  c #08851F",
"c  c #08861F",
"v  c #09861F",
"b  c #0E861C",
"n  c #0F861C",
"m  c #10861C",
"M  c #10861D",
"N  c #10871D",
"B  c #11871D",
"V  c #11871E",
"C  c #12871E",
"Z  c #13871F",
"A  c #14871F",
"S  c #098620",
"D  c #0A8620",
"F  c #0B8620",
"G  c #148720",
"H  c #158720",
"J  c #168721",
"K  c #138624",
"L  c #188722",
"P  c #198723",
"I  c #1A8824",
"U  c #1C8825",
"Y  c #1D8826",
"T  c #1D8827",
"R  c #1F8828",
"E  c #208829",
"W  c #218829",
"Q  c #22892B",
"!  c #23892B",
"~  c #24892C",
"^  c #26892E",
"/  c #278A2F",
"(  c #298A30",
")  c #298A31",
"_  c #2A8A31",
"`  c #2A8A32",
"'  c #2B8A32",
"]  c #2C8B33",
"[  c #2C8B34",
"{  c #2E8B35",
"}  c #2F8B36",
"|  c #308B37",
" . c #318C38",
".. c #328C39",
"X. c #338C3A",
"o. c #358D3C",
"O. c #388E3F",
"+. c #3A8E40",
"@. c #3C8F42",
"#. c #3D8F43",
"$. c #3D8F44",
"%. c #3F9045",
"&. c #3F9046",
"*. c #419047",
"=. c #429048",
"-. c #439149",
";. c #44914A",
":. c #45924B",
">. c #46924C",
",. c #47924D",
"<. c #4C9451",
"1. c #4C9452",
"2. c #4D9453",
"3. c #4E9453",
"4. c #4E9554",
"5. c #4F9555",
"6. c #509656",
"7. c #519657",
"8. c #529657",
"9. c #55975B",
"0. c #56985C",
"q. c #58985D",
"w. c #58995E",
"e. c #59995E",
"r. c #59995F",
"t. c #5C9A62",
"y. c #5D9B63",
"u. c #5E9B63",
"i. c #5E9B64",
"p. c #609C66",
"a. c #619D67",
/* pixels */
"f 4  .L e s a a a p j d a a a a a a a a a a a a a a a a a a a a a a a a a a a a a a a a a a a a a a a a a a a a a a a a a S =   ",
"m X r.] : f a p i h # 0 f a a a a a a a a a a a a a a a a a a a a a a a a a a a a a a a a a a a a a a a a a a a a a a a a S =   ",
"i l X 5 f a u n N 2  .I q s a a a a a a a a a a a a a a a a a a a a a a a a a a a a a a a a a a a a a a a a a a a a a a a S =   ",
"a i B f p u n o % o w.| * g a a a a a a a a a a a a a a a a a a a a a a a a a a a a a a a a a a a a a a a a a a a a d f a S =   ",
"a a a a a m X >.=.o o 3 h a a a a a a a a a a a a a a a a a a a a a a a a a a a a a a a a a a a a a a a a a a a a f 0 1 g v =   ",
"a a a a a l $ o...$ A h p a a a a a a a a a a a a a a a a a a a a a a a a a a a a a a a a a a a a a s l a a a a d q I ^ 5 F O   ",
"a a a a a i l + $ l u a a a a a a a a a a a a a a a a a a a a a a a a a a a a a a a a a a a a a a d t o f p a a z o @.0.. K O   ",
"a a a a a a i l j i a a a a a u n l i a a a a a a a a a a a a a a a a a a a a a a a a a a a a a s r G +.5 f a a p h 1 o l x =   ",
"a a a a a a a a a a a a a a u n X $ l i a a a a a a i a a a a a a a a a a a a a a a a a a a a a d 4 R e.% l a a a p h b i D =   ",
"a a a a a a a a a a a a a a B X 5.#.o l a a a a a a N a a a a a a a a a a a a a a a a a a a a a a f q X h i a a a a a p a S =   ",
"a a a a a a a a a a a a a a j : X./ 1 f a a a a a d X u a a a a a a a a a a a a a a a a a a a a a a d C p a a a a a a a a S =   ",
"a a a a a a a a a a a a a a i j # 1 h p a a a i g 5 i.H e s a a a a a a a a a a a a a a a a a a a a a a a a a a a a a d a S =   ",
"a a a a a a a a a a a a a a a p h f p a a a a a a u ` h i a a a a a a a a a a a a a a a a a a a a a a a a a a a a a u t d v =   ",
"a a a a a a a a a a a a a a a a a a a a a a a a a a : i a a a a a a a a a a a a a a a a a a a a a a a a a a a a a i z Z u D =   ",
"a a a a a a a a a a a a a a a a a a a a a a a a a a h a a a a a a a a a a a a a a a a a a a a a a a a a a a a a z o $.w.. K O   ",
"a a a a a a a a a a a a a a a a a a a a a a a a a a a a a a a a a a a a a a a a a a i p a a a a a a a a a a a a a s y w d v =   ",
"a a a a a a a a a a a a a a a a a a a a a a a a a a a a a a a a a a a a a a a a a i l g p a a a a a a a a a a a a a s d a S =   ",
"a a a a a a a a a a a a a a a a a a a a a a a a a a a a a a a a a a a a p l d a p h ; 4 f a a a a a a a a a a a a a a p a S =   ",
"a a a a a a a a a a a a a a a a a a a a a a a a a a a a a a a a a a a i j o 6 d V . 0.&.X z a a a a a a a a a a a a a a a S =   ",
"a a a a a a a a a a f a a a a a a a a a a a a a a a a a a a a a a a a h < O.U 6 f q Y H t s a a a a a a a a a a a a a a a S =   ",
"a a a a a a a a s y , f a a a a a a a a a a a a a a a a a a a a a a i M X 0.] : f f 5 e d a a a a a a a a a a a a a a a a S =   ",
"a a a a a a a a y B ) q d a a a a a a a a u m l i a a a a a a a a a a i z X 3 h a a f d a a a a a a a a a a a a a a a a a S =   ",
"a a a a a a a d 1 ^ y.o b a a a a a a a u n X @ z i a a a a a a a a a p u V g p a a a a a a a a a a a a a a a a a a a a a S =   ",
"a a a a a a a a d q o h p a a a a a a a N X 2.%.X z a a a a a a a a a f s i a a a a a a a a a a a a a a a a a a a a a a a S =   ",
"a a a a a a a a a d n p a a a a a a a a j : ..( < g a a a a a a a a s 9 i a a a a a a a a a a a a a a a a a a a a a f a a S =   ",
"a a a a a a a a a a i a a a a a a a a a i l # , j p a a a a a a i B X u.{ - h a a a a a a a a a a a a a a a a a s y 4 d a S =   ",
"a a a a a a a a a a a a a a a a a a a a a p j f p a a a a a a a a a u A h i a a a a a a a a a a a a a a a a a a u N R e d S =   ",
"a a a a a a a a a a a a a a a a a a a a a a a a a a a a a a a a a a s e i a a a a a a a a a a a a a a a a a a j % } t.X V c =   ",
"a a a a a a a a a a a a a a a a a a a a a a a a a a a a a a a a a a a d a a a a a a a a a d f a a a a a a a a a d e * g p S =   ",
"a a a a a a a a a a a a a a a a a a a a a a a a a a a a a a a a a a a a a a a a a a a a g 4 : j p a a a a a a a a d l p a S =   ",
"a a a a a a a a a a a a a a a a a a a a a a a a a a a a a a a a a a a a a a a a a a a f 4 Q [ 1 h a a a a a a a a a a a a S =   ",
"a a a a a a a a a a a a a a a a a a a a a a a a a a a a a a a a a i j N u a a a a a a b X &.7.X V p a a a a a a a a a a a S =   ",
"a a a a a a a a a a a a a a a a a a a a a a a a a a a a a a a a p k : X n u a a a a a i l * o b i a a a a a a a a a a a a S =   ",
"a a a a a a a a a a a a a a a a a a a a a a a a a a a a a a a a j $  .<.X N a a a a a a i j n i a a a a a a a a a a a a a S =   ",
"a a a a a a a a a a a a a a a a a a a a a a a a a a a a a a a a h > ' =.o z a a a a a a a a a a a a a a a a a a a a a a a S =   ",
"a a a a a a a a a a a a a a a a a a a a a a a a a a a a a a a a p j , X z u a a a a a a a a a a a a a a p a a a a a a a a S =   ",
"a a a a a a a a a a a a a a a a a a a a f d a a a a a a a a a a a p h b i a a a a a a a a a a a a a a d C i a a a a a a a S =   ",
"a a p l d a a a a a a a a a a a a a p h : 3 h a a a a a a a a a a a a a a a a a a a a a a a a a a a f q . j u n h p a a a S =   ",
"a p j o 7 f a a a a a a a a a a a a h 1 ] ! 4 f a a a a a a a a a a a a a a a a a a a a a a a a a d 5 T 9.& C X 1 j j a a S =   ",
"a h 1 O.U 8 s a a a a a a a a a a a B X 6.*.X z a a a a a a a a a a a a a a a a a i B h p a a a a s e J *.e # -.( < - i a S =   ",
"a n o 0.' > f a a a a a a a a a a a i z o & l i a a a a a a a a a a a a a a a a u z X 2 h p a a a a d e X V X 1.} o p.H e D =   ",
"a i l X 4 h a a a a a a a a a a a a a i n k i a a a a a a a a a a a a a a a a p n o 4._ , f a a a a a s n u n X > h E f p S =   ",
"a a i V g p a a a a a a a a a a a a a a a a a a a a a a a a a a a a a a a a a p l # ;.~ 3 f a a a a a a a a u B j p 5 a a S =   ",
"a a a a a a a a a a a a a a a a a a a a a a a a a a a a a a a a a a a a a a a a i l X 3 h a a a a a a a a a a a a a s a a S =   ",
"a a a a a a a a a a a a a a a a a a a a a a a a a a a a a a a a a a a a a a a a a i n f p a a a a a a a a a a a a a a a a S =   ",
"a a a a a a a a a a a a a a a a a a a a a a a a a a a a a a a a a a a s d a a a a a a a a a a a a a a a a a a a a a a a a S =   ",
"a a a a a a a a B a a a a a a a a a a a a a a a a a a a a a a a a a d q 1 f p a a a a a a a a a a a a a a a a a a a a a a S =   ",
"a a a a a a a u X s a a a a a a a a a a a a a a a a a a a a a a a d q P / 5 f a a a a a a a a a a a a a a a a a a a a a a S =   ",
"a a a a a a y C t.e s a a a a a a a a a a a a a a a a a a a a a a l o O.q.X C p a a a a a a a a a a a a a a a a a a a a a S =   ",
"a a a a a a p h X.i a a a a a a a a a a a a a a a a a a a a a a a p h 3 o l i a a a a a a a a a a a a a a a a a a a a a a S =   ",
"a a a a a a a p # a a a a a a a a a a a a a a a a a a a a a a a a a p g b i a a a a a a a a a a a a a a a a a a a a a a a S =   ",
"a a a a a a a a h a a a a a a a a a a a a a a a a a a a a a a a a a a a a a a a a a a a a a a a a a a a a a a a a a a a a S =   ",
"a a a a a a a a a a a a a a a a a a a a a a a a a a a a a a a a a a a a a a a a a a a a a a a a a a a a a a a a a a a a a S =   ",
"a a a a a a a a a a a a a a a a a a a a a a a a a a a a a a a a a a a a a a a a a a a a a a a a a a a a a a a a a a a a a S =   ",
"a a a a a a a a a a a a a a t a a a a a a a a a a a a a a a a a a a a a a a a a a a a a a a a a a a a a a a a a a a a a a S =   ",
"a a a a a a a a a a a a a a Z h B i a a a a a a a a a a a a a a a a a a a a p j j p a a a a a a a a a a a a a a a a a a a S =   ",
"a a a a a a a a a a a p u j a.2 X b i a a a a a a a a a a a a a a a a a a s Z $ ; j p a a a a a a a a a a a a a a a a a a S =   ",
"a B s a a a a a a a a p N j @ ] 3.o n a a a a a a a a a a a a a a a a a f e .  .] > h a a a a a a a a s s a a a a a a a a S =   ",
"f . t d a a a a a a p g X u 2 ^ ;.@ l a a a a a a a a a a a a a a a a d 4 ~ ;.:.>.X n a a a a a a a s y y s a a a a a a a S =   ",
"3 8.J e a a a a a p z @ u.W 8 3 X z i a a a a a a a a a a a a a a a a d 4 E 1.. @ b i a a a a a a a u N B u a a a a a a a S =   ",
"6 ,.Z y a a a a a a d e _ n u f n i a a a a a a a a a a a a a a a a a a f 6 X Z z u a a a a a a a N X <.4.. B a a a a a a S =   ",
"f X y s a a a a a a a d : u s a a a a a a a a a a a a a a a a a a a a a a f N i a a a a a a a a a a s y t s a a a a a a a S =   ",
"a n s a a a a a a a a a h a a a a a a a a a a a a a a a a a a a a a a a a a a a a a a a a a a a a a a s d a a a a a a a a S =   ",
"a a a a a a a a a a a a a a a a a a a a a a a a a a a a a a a a a a a a a a a a a a a a a a a a a a a a a a a a a a a a a S =   "
};
