/* XPM */
static char *result[] = {
/* columns rows colors chars-per-pixel */
"64 64 242 2 ",
"   c black",
".  c #03000D",
"X  c #150101",
"o  c #140E0C",
"O  c #000010",
"+  c #011A12",
"@  c #290008",
"#  c #350206",
"$  c #34100C",
"%  c #042901",
"&  c #003802",
"*  c #023513",
"=  c #0B3014",
"-  c #2E320C",
";  c #352817",
":  c #0C082A",
">  c #291A2E",
",  c #122333",
"<  c #38322C",
"1  c #480003",
"2  c #44180A",
"3  c #58190C",
"4  c #4A0917",
"5  c #6C0008",
"6  c #750D0E",
"7  c #651A00",
"8  c #4A2713",
"9  c #54281A",
"0  c #533213",
"q  c #6A2C0E",
"w  c #752900",
"e  c #6C3602",
"r  c #7A3907",
"t  c #441225",
"y  c #552F28",
"u  c #4C3924",
"i  c #62342B",
"p  c #763923",
"a  c #005605",
"s  c #0A500F",
"d  c #344A17",
"f  c #2B5816",
"g  c #37551B",
"h  c #006806",
"j  c #156E03",
"k  c #007500",
"l  c #007D00",
"z  c #006817",
"x  c #176613",
"c  c #067418",
"v  c #197A18",
"b  c #2A6D1A",
"n  c #306B17",
"m  c #277917",
"M  c #085027",
"N  c #245428",
"B  c #176925",
"V  c #197627",
"C  c #3C6923",
"Z  c #76480B",
"A  c #7C4215",
"S  c #4F4D32",
"D  c #714C2D",
"F  c #6B4C32",
"G  c #775938",
"H  c #7F623D",
"J  c #30124F",
"K  c #292C5C",
"L  c #071376",
"P  c #453A4E",
"I  c #6A2A5B",
"U  c #3D5649",
"Y  c #197F59",
"T  c #514C53",
"R  c #655B57",
"E  c #716951",
"W  c #525066",
"Q  c #746F6F",
"!  c #76767A",
"~  c #870206",
"^  c #990100",
"/  c #8E1A0A",
"(  c #A80503",
")  c #B31304",
"_  c #8C2D0D",
"`  c #882813",
"'  c #B3240C",
"]  c #A92817",
"[  c #CA0300",
"{  c #D70400",
"}  c #CE1801",
"|  c #F40800",
" . c #E91500",
".. c #C6260E",
"X. c #DA2408",
"o. c #C92C11",
"O. c #D33218",
"+. c #F22B04",
"@. c #F5390A",
"#. c #E73611",
"$. c #EE3510",
"%. c #F33610",
"&. c #F53B17",
"*. c #F33823",
"=. c #844A1A",
"-. c #8B5319",
";. c #98571D",
":. c #B44D10",
">. c #946F19",
",. c #844A27",
"<. c #8C4D22",
"1. c #8B5228",
"2. c #925627",
"3. c #835B3A",
"4. c #AE5C2C",
"5. c #A46731",
"6. c #DB5E13",
"7. c #F34E05",
"8. c #FA5A09",
"9. c #F64911",
"0. c #FC5811",
"q. c #FC7009",
"w. c #FE6811",
"e. c #FA4728",
"r. c #F87426",
"t. c #A40056",
"y. c #D02940",
"u. c #B95E5B",
"i. c #836841",
"p. c #916F45",
"a. c #8A7246",
"s. c #967749",
"d. c #AA794C",
"f. c #8A766A",
"g. c #C66D60",
"h. c #008301",
"j. c #028800",
"k. c #00850C",
"l. c #048615",
"z. c #058716",
"x. c #068618",
"c. c #088618",
"v. c #038918",
"b. c #0A8A19",
"n. c #11871D",
"m. c #188418",
"M. c #148A1B",
"N. c #1B8B1C",
"B. c #24871A",
"V. c #008720",
"C. c #098620",
"Z. c #178722",
"A. c #1B8824",
"S. c #26822D",
"D. c #24892C",
"F. c #2B8833",
"G. c #348C3B",
"H. c #3C8F42",
"J. c #47924D",
"K. c #4C9452",
"L. c #54975A",
"P. c #5C9B62",
"I. c #A78E31",
"U. c #CDA803",
"Y. c #E3B519",
"T. c #D2B030",
"R. c #EFC537",
"E. c #9A8857",
"W. c #A88854",
"Q. c #B5955C",
"!. c #B99A61",
"~. c #CFB259",
"^. c #C39D63",
"/. c #FF9070",
"(. c #C8A464",
"). c #D2AC6A",
"_. c #DDB472",
"`. c #FFA07D",
"'. c #E7BC76",
"]. c #EBC277",
"[. c #F2C67C",
"{. c #F5CA7E",
"}. c #FAC87F",
"|. c #FFF079",
" X c #0B2585",
".X c #232E93",
"XX c #0E0EA5",
"oX c #0022B2",
"OX c #4E35B7",
"+X c #656297",
"@X c #1500C8",
"#X c #092DD1",
"$X c #2A3CCD",
"%X c #283CD7",
"&X c #000EED",
"*X c #052FEE",
"=X c #033AFE",
"-X c #213DEF",
";X c #223DF4",
":X c #213EFE",
">X c #4A3AF0",
",X c #2B42D7",
"<X c #0041EE",
"1X c #2840FA",
"2X c #2C43FF",
"3X c #3447FF",
"4X c #4F4FCB",
"5X c #AD3598",
"6X c #8D2EA2",
"7X c #833ECD",
"8X c #8A8A8C",
"9X c #949499",
"0X c #B19C8F",
"qX c #B9A795",
"wX c #A09FA4",
"eX c #A6A6AA",
"rX c #B6AFB0",
"tX c #B5B4BA",
"yX c #EA9091",
"uX c #FFB39B",
"iX c #C8B9AF",
"pX c #F5ACAA",
"aX c #F7CC83",
"sX c #FCCE82",
"dX c #FFD385",
"fX c #FFD789",
"gX c #FFD989",
"hX c #FFF098",
"jX c #FDC4B5",
"kX c #C0BCC1",
"lX c #C9C6C8",
"zX c #CECCD0",
"xX c #D1CED3",
"cX c #D8D8DB",
"vX c #EEDFDF",
"bX c #F7D3D2",
"nX c #DFDDE2",
"mX c #E9E7EB",
"MX c #F2EFF2",
"NX c #F6F2F5",
"BX c #FCF5F6",
"VX c #FEFCFE",
/* pixels */
"c.l.G.b.x.c.c.c.c.c.c.c.c.c.c.c.l.c.c.c.c.c.c.c.c.c.c.c.c.c.c.c.c.c.c.c.c.c.c.c.c.l.c.c.c.c.c.c.c.c.c.c.c.c.c.c.x.c.c.c.c.C.h.Y ",
"b.k.P.A.l.c.c.x.c.c.h.c.c.c.c.c.c.c.c.c.c.c.c.c.c.c.c.c.c.c.c.c.c.l.c.c.l.c.c.c.c.c.c.c.c.c.c.x.l.c.c.c.c.c.c.c.c.c.c.c.c.c.j.Y ",
"c.c.l x.c.c.l.n.c.l.G.n.c.c.c.c.c.c.c.c.c.c.c.c.c.c.l.c.c.c.c.c.c.c.c.c.c.c.c.c.c.c.c.c.c.c.c.c.c.c.c.c.c.x.c.c.c.c.x.c.c.C.j.Y ",
"c.c.n.c.c.c.b.h.k.k.L.D.l.c.c.c.c.c.c.c.c.c.l.c.c.c.c.c.c.c.l.c.c.c.c.c.c.c.c.c.x.c.c.c.c.c.c.c.c.c.c.c.c.c.c.c.c.c.c.c.c.C.j.Y ",
"c.c.l.c.c.n.h.K.H.h.h.l.x.c.c.x.c.c.c.c.c.x.c.c.c.c.c.c.c.c.c.c.c.c.c.c.c.c.c.c.c.c.c.c.c.c.c.c.c.c.c.c.c.c.c.c.c.c.l.l.b.C.h.Y ",
"c.c.c.x.c.b.l J.F.h.n.c.c.c.c.c.c.c.c.c.c.c.c.c.c.c.c.c.c.c.c.b.c.l.l.l.z.c.c.c.c.c.x.c.c.c.c.l.x.c.c.n.c.c.c.c.c.l.Z.D.l.C.h.Y ",
"c.c.c.c.c.c.b.h.k.c.x.c.x.c.c.c.c.c.c.x.c.c.c.c.c.x.c.c.c.c.v.b.m.m m B.B.z.x.c.x.x.c.c.c.c.c.b.c.c.l.h.c.c.c.c.c.h.H.L.l C.j.G.",
"c.c.c.c.c.c.c.c.b.c.c.c.c.c.c.x.n.c.x.c.c.c.c.c.c.c.c.c.l.x.m f * O . . + g v v.m.c.c.c.l.c.c.c.c.l.n.G.k.b.c.c.c.b.l.h.C.V.l.Y ",
"c.c.c.c.c.c.c.c.c.c.c.c.c.c.l.n.l k.b.c.c.c.c.c.c.b.b.x.m.g O # _ :.:.:._ X $ b V.b.x.x.c.c.c.c.c.k.F.L.h.c.x.c.c.c.c.c.c.C.j.Y ",
"c.c.c.c.c.c.c.c.c.c.c.c.c.x.n.h.L.G.h.c.c.c.c.c.c.c.x.m = @ :.6.w.q.0.Y.Y.6.3 @ m V.c.c.c.l.c.c.c.c.l.h.n.x.c.c.c.c.c.c.c.C.j.Y ",
"c.c.c.c.c.x.c.c.c.c.c.c.c.c.b.k.H.D.k.c.c.c.c.c.c.v.n O 6 6.8.8.8.0.r.7.q.q.r.# f b.c.c.c.c.c.c.c.c.c.n.c.c.c.c.c.c.c.c.c.C.j.Y ",
"c.c.l.c.c.c.c.c.c.c.c.x.c.c.c.c.h.l.c.c.c.c.c.c.v.n O ` 9.9.9.0.0.8.@./.yXr.q.:.. m x.c.c.c.c.c.c.c.c.l.c.c.c.c.c.c.c.c.c.C.j.Y ",
"c.c.x.c.l.c.c.c.c.c.c.x.c.c.c.c.b.c.c.c.c.c.c.l.m O ` 9.9.9.9.9.9.7.jXBXVXvX`.q.t x b.c.c.c.c.c.c.c.c.c.c.c.c.c.c.c.c.c.c.C.j.Y ",
"c.c.c.c.c.c.c.c.c.c.c.c.c.c.c.c.c.c.c.c.c.l.l.v * / 9.@.%.%.&.e.| pXVXyXbXyXBXr._ s m.c.b.c.c.c.c.c.c.c.c.c.c.x.c.c.c.x.c.C.j.Y ",
"c.c.l.c.x.c.c.c.c.c.c.c.c.x.c.c.c.c.c.c.c.c.m.f 4 #.%.%.%.%.%.*.| BXvX{ { { vXuX( M m.c.b.c.c.c.c.c.c.c.c.c.c.c.c.h.J.L.h.Z.h.Y ",
"c.c.c.c.c.c.c.c.c.x.c.c.c.c.c.c.c.c.c.c.c.v.m . o.%.$.%.$.$.$.$.+.BXyXuXbXpXpXpX( M B.N.l.c.c.c.c.l.c.c.c.c.c.c.c.c.c.n.c.C.j.Y ",
"c.c.l.c.c.c.c.c.c.c.c.l.c.c.l.c.c.c.c.c.c.N.s ~ $.$.$.$.$.$.%.&.| bXiXlXcXiXqXg./ * s c m.M.x.c.c.c.c.c.c.c.c.c.c.c.l.l.c.C.j.G.",
"c.c.c.c.c.c.c.c.c.c.c.c.c.c.c.c.c.c.c.l.m.b + o.%.$.$.$.%.@.#.o.) ) u.[ [ { } { O.o.( 5 * z c.x.c.c.c.c.c.c.l.c.c.c.c.c.c.C.l.Y ",
"c.c.c.x.c.c.c.c.c.x.c.c.c.c.c.c.c.c.v.m = @ ` $.$.$.$.9.#.' / ( ) }  .&.e.e.e.&.$.#.%.#...5 x n.c.c.c.c.c.c.c.c.c.c.c.c.x.C.h.Y ",
"c.c.c.c.c.c.c.c.c.c.c.c.c.c.c.c.c.v.m + ~ #.$.$.$.$.@.o.` / ' ..o.o.X.[ [ ( ^ r 3 4 2 9 _ 6 @ m.x.c.l.c.x.c.c.c.c.c.c.c.x.C.h.Y ",
"c.c.c.c.c.c.c.c.c.c.l.x.c.c.c.c.c.n.s 5 #.$.$.$.&.%.] 1 ~ ^ ^ 5 5 w p 3.a.Q.W.< + X X X . o f l.c.c.x.c.c.c.c.c.c.c.c.c.c.C.j.Y ",
"c.c.c.c.c.l.c.c.l.n.A.l.c.c.l.c.l.B.* ' $.&.&.&.&.] $ D Q.Q.Q.(._.E i.sXfXgXW.  ; % f x x v v.b.c.c.c.c.c.c.c.c.c.c.x.c.c.C.j.Y ",
"c.c.c.c.c.c.c.c.h.G.P.h.n.c.c.c.x.v ; ' #. .{  .' 0 w 3.fXfXfXfXgXa.u dXsXfXi.  S - & h N.l.c.c.c.c.c.c.c.c.c.c.c.c.c.c.c.C.j.Y ",
"c.c.c.c.c.c.c.c.c.l.k.c.c.c.c.c.l.m.; ..( 4.W.d.9 q Z 1 _.fXdXsXfXa.; sXfX].Q.'.[.].(.y a m.c.c.c.c.c.c.c.l.c.c.x.c.c.c.x.C.j.Y ",
"l.c.c.c.c.c.l.c.c.c.b.c.c.c.c.c.x.c.d 5 s.}.sXfX_.3 r e F '.fXsXgXQ.S dXdX].dXgXgXgXgX_.@ v c.c.c.c.l.c.c.c.c.c.c.c.c.c.c.C.h.G.",
"c.c.c.c.c.c.c.c.c.c.c.c.c.x.c.c.c.M.h u '.sX'.[.fXi.7 =.1 s.fXdXfXaX'.dX}.dXdX}.}.dX[.{.3.a N.c.c.c.c.c.c.c.c.c.c.c.c.c.c.C.k.Y ",
"c.c.c.c.c.c.c.c.c.c.c.c.c.c.c.c.b.N.h p.}.sXsX!.aX].4 7 9 _.gX!.s.dXgXdX}.dXdXdX}.dX[.[.s.& B.c.c.c.c.c.c.c.c.c.c.l.l.c.x.C.k.Y ",
"l.c.c.c.c.c.c.c.c.c.c.c.c.c.c.c.c.N.a 3.sXsXdX'.(.gX_.i (.gXdXF   G _.dXgXdXdXdX}.[.].].G a N.c.c.c.c.c.c.x.c.c.k.G.P.h.n.C.h.Y ",
"c.c.l.c.c.c.c.c.c.c.c.c.c.x.c.c.c.b.v @ '.fX{.(.).dXdXdXdXdX[.u 9 #   D Q.dXfX{.[.].].).X m b.c.c.c.c.x.c.x.c.c.c.c.n.c.x.C.j.Y ",
"c.c.c.c.c.c.l.c.c.l.c.c.c.c.c.c.c.c.m.a G {.{.).aXdXaXfXdXdXdXH   0 0 #   p._.{.].].).u a b.l.c.c.c.c.c.c.c.c.c.c.x.l.c.c.C.j.Y ",
"c.c.c.c.c.c.c.c.c.c.c.c.c.c.c.c.c.c.l.m.& F ).aXaXaXfXfX}.}.gX_.u 2 8 8 0 @ $ D H F % h M.Z.A.l.c.l.c.c.c.c.c.c.c.c.c.c.c.C.j.Y ",
"c.c.c.c.c.c.c.c.c.c.c.c.c.c.l.c.c.c.c.l.B.h a n F 8 Q.fXgXdX}.gXQ.  0 8 8 0 0 $ @ % v M.h.J.L.h.n.c.c.c.c.c.x.c.c.c.x.c.c.C.j.Y ",
"c.c.c.c.c.l.c.c.c.c.c.c.c.c.c.c.c.c.c.c.x.N.N.l.> 4 . d.].fXfXdX_.  # $ 2 8 $ t # B b.c.c.l.k.c.c.c.c.c.c.c.c.l.c.c.l.c.c.C.j.Y ",
"c.c.x.c.c.c.c.c.x.c.c.c.c.c.c.c.c.c.c.l.x.c.c.M.v b g   < I.~.'.aX^.F S o @ d = x c.c.b.x.c.b.c.c.c.c.c.c.c.c.c.c.c.c.c.c.C.j.Y ",
"c.c.c.c.c.c.c.c.c.c.c.c.l.c.c.x.c.c.c.c.x.c.x.b.b.c - ` # XXL $ e S S > - v l.l.b.x.c.c.c.x.l.c.c.c.c.c.c.c.c.c.c.c.c.c.c.C.j.Y ",
"c.c.c.c.c.c.c.c.c.c.c.c.c.c.c.c.c.c.c.c.c.c.x.b.m o ..&.7 OX3X%X6X[ y.I , V b.l.c.x.c.c.c.c.c.c.c.c.c.c.c.c.c.c.c.c.c.c.c.C.j.Y ",
"l.c.c.c.c.c.c.c.c.l.c.c.c.c.c.c.c.c.c.c.x.x.x.B.* ] &.#.3 ( >X=X:Xu.7.@.p : j c.b.x.c.c.c.c.c.c.c.c.c.c.n.c.c.c.c.c.c.c.c.C.j.Y ",
"c.c.c.c.c.c.c.c.c.c.c.c.c.c.c.c.c.c.c.c.v.b.N.a 5  .+.O.t } 7X=X=X@Xt.5X5X$XK k V.x.c.c.c.c.c.c.c.c.c.l.l c.l.c.c.c.c.c.c.C.j.Y ",
"c.c.c.k.c.c.x.c.c.c.c.c.c.c.c.c.c.c.c.l.Z.M.k K f.g.u.( 6 X.6X=XOXtXeX<X=X1X#Xe C c b.c.c.c.c.c.c.c.l.A.K.k.n.h.l.c.n.c.c.C.j.Y ",
"c.c.x.D.b.l.c.c.c.c.c.c.c.l.c.c.c.c.n.h.P.U Q kXcXcXcXkXR ..7X&X~.hX|.(.&X3X&XU.T.z B.c.c.l.c.c.c.c.l.Z.K.k.l.G.Z.l.h.l.c.C.j.Y ",
"c.b.k.P.D.l.x.c.c.c.c.c.c.c.c.c.c.c.c.c.Z.> eXmXMXNXNXlXQ P >X,XT.U.R.U.#X2X&XE.T.M M.v.c.c.c.l.c.c.c.l.h.Z.h.L.G.h.P.n.x.C.h.Y ",
"c.c.b.h.x.c.c.c.c.c.l.c.c.c.c.x.c.c.c.l.V . tXVXNXNXNXxXR L 2X*X!.R.U.>.*X1X=X4X>., B b.c.c.c.c.c.c.c.c.n.c.b.h.k.c.H.c.c.c.h.Y ",
"c.c.c.c.c.c.c.x.c.c.c.c.c.c.c.c.x.c.c.M.z Q BXBXNXNXNXVXMXE  X:X$XE.p.#X:X:X:X*XW wXP c b.l.c.c.c.c.c.c.c.c.c.n.b.c.h.c.c.C.j.Y ",
"c.c.c.c.c.c.c.c.x.c.c.c.c.c.c.c.c.c.l.D.  kXcXcXmXzXVXMXVXcX- ,X1X&X*X2X:X:X1X*XW zX9X& A.c.c.c.c.c.l.c.c.c.c.c.c.c.b.c.c.C.j.Y ",
"c.c.c.c.c.c.c.x.c.c.c.c.c.c.c.c.x.c.l.S.  cX9XcXtXwXVXMXmXVXQ oX1X2X1X:X:X:X1X@XQ zXrX% A.x.b.c.x.c.c.c.c.c.c.c.c.c.c.c.c.C.j.Y ",
"c.c.c.c.c.c.c.c.c.c.c.c.c.c.x.c.c.x.l.S.  lXeXnXtXtXVXcXwXzXu $X1X:X:X:X:X:X:XL rXzX+X* A.b.l.c.c.c.c.c.c.c.l.c.c.c.c.c.c.C.j.Y ",
"c.x.c.c.c.c.c.c.n.c.c.c.c.c.c.c.c.c.c.S.% wXMXMXMXNXVXzXU u .X-X-X;X;X;X;X2XXXT eX! > V v.c.c.c.c.c.c.l.c.c.c.c.c.x.c.c.c.C.j.Y ",
"c.c.c.c.c.c.c.k.h.b.x.x.c.c.c.c.x.c.c.b.B T zXmXmXmXmXcXlXR .X$X,X,X%X%X-XoXT 9X8X! > V l.c.c.c.c.c.c.c.x.c.c.c.c.c.c.c.c.C.j.Y ",
"c.c.c.x.c.c.k.A.L.l c.c.c.c.c.c.c.c.c.x.Z.N T tXxXcXnXnX9X> y J J K %X#X XX P Q Q P N b.c.c.c.c.c.c.c.c.c.c.c.c.c.c.c.c.c.C.j.G.",
"c.c.c.c.c.c.l.A.J.k.c.c.c.c.c.c.c.c.x.c.l.b.B & T ! ! T ; ,.,.=.2.r J < e p Z e # N x.c.c.c.c.x.c.c.c.c.c.c.c.c.c.c.l.c.c.C.l.Y ",
"c.x.c.c.x.c.c.l.h.b.c.c.c.c.c.c.c.c.c.c.x.c.M.V 9 r e A ,.<.2.2.5.5.0 q A A -.2.<.; v c.c.c.c.c.c.c.x.c.l.c.c.c.c.c.c.c.x.C.h.Y ",
"c.c.c.c.c.c.c.c.n.x.c.c.c.c.c.c.x.c.c.c.x.c.v.g p 1.1.1.<.<.<.<.2.5.1.9 A A A -.2.y c c.c.c.c.c.c.c.c.c.c.c.c.c.x.c.c.c.x.C.h.Y ",
"c.c.c.c.c.c.c.c.c.c.c.c.c.c.c.c.c.c.c.c.c.n.v.g ,.=.<.<.<.<.1.<.1.;.2.9 A A =.=.2.9 c b.c.c.c.c.l.c.c.x.c.c.c.c.c.c.c.c.c.C.j.Y ",
"c.c.x.c.c.c.x.c.c.c.c.c.c.c.c.c.c.c.c.c.c.b.v.f p <.2.-.<.1.2.2.<.2.p i =.A =.-.-.u c c.c.c.c.c.c.c.c.c.c.c.c.c.c.c.x.c.c.C.j.Y ",
"c.c.c.c.c.c.c.c.c.c.c.c.c.c.n.x.c.c.c.c.c.c.x.c y p w r _ r w w ` G 9 e 7 7 w ,.i x b.b.c.c.c.x.c.c.c.c.c.l.c.c.c.c.c.c.c.C.j.Y ",
"x.c.c.c.x.c.c.c.c.c.c.c.c.l.l b.b.c.c.c.c.c.c.l.u qXiX0X0XqXqXqXiXf.F 0X0XqXqXqXR k n.c.c.c.c.c.c.c.c.c.c.c.c.c.x.c.c.c.x.C.j.Y ",
"c.c.c.c.c.c.c.x.c.c.c.c.l.D.P.h.h.b.c.c.c.c.c.x.j F E R R E f.f.E - d S E E E S j c.c.c.c.c.c.c.c.c.c.c.c.c.c.c.c.c.c.x.c.C.j.Y ",
"c.b.x.c.x.c.c.c.c.c.c.c.b.n.F.D.H.h.c.c.c.c.c.c.C.j.l l h.k k k h.v.l.h.j.l l v.Z.l.c.c.c.c.c.c.x.c.c.c.x.c.c.c.c.c.c.c.c.C.j.Y ",
"c.h.c.c.c.c.c.c.x.c.c.c.l c.l H.L.h.n.c.c.c.c.c.b.b.M.M.b.M.N.m.M.c.c.n.b.D.F.L.K.l b.c.c.c.c.c.c.c.c.n.c.c.c.c.c.x.c.c.c.C.j.Y ",
"n.H.l.c.c.c.x.c.c.x.c.x.L.b.b.h.h.b.x.c.c.c.c.c.x.b.c.c.c.b.c.c.l.c.c.c.k.F.L.h.c.c.c.c.c.c.c.c.c.x.c.h.h.n.c.c.c.c.c.c.c.C.j.Y ",
"Z.L.l.c.c.c.c.c.c.c.c.c.J.b.c.c.n.x.c.c.c.c.x.c.x.c.c.c.c.x.l.c.c.c.c.c.b.l.h.n.c.c.x.c.c.c.c.c.c.n.h.K.J.h.n.c.c.c.x.c.c.C.j.Y ",
"x.l c.c.x.c.x.c.c.c.c.c.h.c.c.c.x.c.c.c.c.c.c.c.x.c.c.x.c.c.c.c.x.c.c.c.c.b.n.x.c.c.c.c.c.c.c.c.c.c.k.D.D.l.c.c.c.c.c.c.c.C.j.Y ",
"c.n.c.c.c.c.c.c.c.c.c.c.n.c.c.c.x.c.c.c.c.c.c.c.x.c.c.c.c.c.c.c.c.c.x.c.c.c.x.c.c.c.c.c.c.c.c.c.c.c.c.k.k.b.x.c.c.c.c.c.x.C.j.Y ",
"c.c.c.c.c.c.c.c.c.c.c.c.c.c.c.c.c.c.c.c.c.x.c.c.c.c.c.c.c.c.x.c.c.c.c.c.c.c.c.c.c.c.c.c.c.c.c.c.c.c.c.c.b.x.c.c.c.x.c.c.c.C.j.Y "
};
