/* XPM */
static char *result[] = {
/* columns rows colors chars-per-pixel */
"64 64 218 2 ",
"   c #010101",
".  c #0C0505",
"X  c #010B02",
"o  c #0D0907",
"O  c #030309",
"+  c #030D0B",
"@  c #0E0808",
"#  c #140505",
"$  c #130B0A",
"%  c #1A0D0D",
"&  c #001302",
"*  c #001D01",
"=  c #02130A",
"-  c #15140A",
";  c #060713",
":  c #050C11",
">  c #071817",
",  c #1C1110",
"<  c #1E1F12",
"1  c #240D0D",
"2  c #231212",
"3  c #2C1615",
"4  c #271818",
"5  c #2D1A1A",
"6  c #381616",
"7  c #331B1B",
"8  c #3B1D1D",
"9  c #002101",
"0  c #002B01",
"q  c #082806",
"w  c #02230D",
"e  c #0F260E",
"r  c #003300",
"t  c #013903",
"y  c #043909",
"u  c #172614",
"i  c #063C18",
"p  c #2D2414",
"a  c #382418",
"s  c #0E132E",
"d  c #0F1432",
"f  c #131D3C",
"g  c #0C3A25",
"h  c #122E3A",
"j  c #3D2222",
"k  c #491D1D",
"l  c #432424",
"z  c #492928",
"x  c #572727",
"c  c #55352B",
"v  c #5A3535",
"b  c #593636",
"n  c #602A27",
"m  c #6F332A",
"M  c #673434",
"N  c #603838",
"B  c #6C3E3E",
"V  c #773A38",
"C  c #014302",
"Z  c #004C00",
"A  c #024909",
"S  c #1B480C",
"D  c #015400",
"F  c #015C00",
"G  c #075409",
"H  c #074813",
"J  c #09431D",
"K  c #045717",
"L  c #005A1C",
"P  c #145119",
"I  c #2C4912",
"U  c #046507",
"Y  c #006E01",
"T  c #007300",
"R  c #007B00",
"E  c #00760B",
"W  c #007C0E",
"Q  c #026B12",
"!  c #00631B",
"~  c #08671A",
"^  c #037213",
"/  c #057B15",
"(  c #08781C",
")  c #034826",
"_  c #004E26",
"`  c #005223",
"'  c #005A21",
"]  c #0F5E30",
"[  c #125C36",
"{  c #135B3C",
"}  c #0F6C2F",
"|  c #0C7927",
" . c #136C39",
".. c #0F7E31",
"X. c #117E35",
"o. c #127538",
"O. c #137C3B",
"+. c #464E29",
"@. c #784237",
"#. c #165745",
"$. c #135940",
"%. c #1A5252",
"&. c #136D48",
"*. c #157944",
"=. c #17754C",
"-. c #167849",
";. c #197551",
":. c #1C715B",
">. c #197F59",
",. c #2A6F5C",
"<. c #1F4C64",
"1. c #215D6A",
"2. c #28417E",
"3. c #245C78",
"4. c #1F6B64",
"5. c #226C6E",
"6. c #306A75",
"7. c #6B4040",
"8. c #734343",
"9. c #7B4848",
"0. c #873D3D",
"q. c #953D38",
"w. c #8B4545",
"e. c #834C4C",
"r. c #8B4E4E",
"t. c #974242",
"y. c #8B5353",
"u. c #925554",
"i. c #9C5353",
"p. c #965B5B",
"a. c #9D5D5D",
"s. c #A34D4A",
"d. c #AE4F4D",
"f. c #B74847",
"g. c #A15E5E",
"h. c #AA5F5F",
"j. c #B35353",
"k. c #B65B5B",
"l. c #AA6868",
"z. c #B36C6C",
"x. c #BA6C6C",
"c. c #B97171",
"v. c #C44C4C",
"b. c #D4514F",
"n. c #C45755",
"m. c #D75E5E",
"M. c #E45D5D",
"N. c #F45F5F",
"B. c #C56363",
"V. c #C16D6D",
"C. c #D96363",
"Z. c #CD7474",
"A. c #C87878",
"S. c #D27C7C",
"D. c #E86767",
"F. c #FF6464",
"G. c #F56969",
"H. c #FF6B6B",
"J. c #E17C7C",
"K. c #F37575",
"L. c #FF7373",
"P. c #FF7B7B",
"I. c #008401",
"U. c #028900",
"Y. c #00840C",
"T. c #008909",
"R. c #009402",
"E. c #009C00",
"W. c #048515",
"Q. c #088217",
"!. c #078618",
"~. c #088618",
"^. c #11871D",
"/. c #008121",
"(. c #0A8521",
"). c #0D812C",
"_. c #148722",
"`. c #1C8825",
"'. c #108031",
"]. c #24892C",
"[. c #228337",
"{. c #2C8B33",
"}. c #338C3A",
"|. c #348D3B",
" X c #3C8F42",
".X c #45914B",
"XX c #4B8D5E",
"oX c #4E9553",
"OX c #55975A",
"+X c #59995E",
"@X c #5D9A62",
"#X c #619D67",
"$X c #2A3A89",
"%X c #2E3893",
"&X c #303699",
"*X c #295C84",
"=X c #30589C",
"-X c #2B618C",
";X c #3F648D",
":X c #3357A6",
">X c #374EB3",
",X c #3B4EBF",
"<X c #406983",
"1X c #3B4CC2",
"2X c #D58383",
"3X c #DC8484",
"4X c #E68585",
"5X c #E98080",
"6X c #E58B8B",
"7X c #EB8C8C",
"8X c #F58383",
"9X c #FF8484",
"0X c #F18D8D",
"qX c #FF8C8C",
"wX c #ED9090",
"eX c #F59393",
"rX c #FF9494",
"tX c #FE9B9B",
/* pixels */
"~.W.{._.W.~.~.~.~.W.~.~.~.~.~.~.~.~.~.~.~.~.~.~.~.W.~.~.~.W.~.~.~.~.~.~.~.~.~.~.~.~.~.~.~.~.~.~.~.W.~.~.~.~.~.~.~.~.~.~.~.^.U.[.",
"^.I.+X{.Y.~.~.~.~.~.I.W.~.~.~.~.~.~.~.~.~.~.~.~.~.~.~.~.~.~.~.~.~.~.~.~.~.~.~.~.~.~.W.~.~.~.~.~.~.~.~.~.~.~.~.~.W.~.~.~.~.~.W.>.",
"~.~.I.W.~.~.~.^.^.Y.}.`.W.~.~.~.~.~.~.~.W.~.~.~.~.~.~.~.~.~.~.~.~.~.~.~.~.~.~.W.~.~.~.~.~.~.W.~.~.~.~.~.~.~.~.~.~.~.~.~.(.(.T.[.",
"~.~.^.~.~.~.^.I.I.I.+X}.Y.~.~.~.W.~.~.~.~.~.~.~.~.~.~.~.~.~.~.~.~.~.~.W.~.~.~.~.~.~.~.W.~.~.~.~.~.~.~.~.~.~.~.~.~.~.~.~.!./.W.>.",
"~.~.~.~.~.^.I..X.XI.I.Y.~.~.~.~.~.~.~.~.~.~.~.~.~.~.~.~.~.W.~.~.~.~.~.~.~.~.~.~.~.~.~.~.~.~.~.~.~.~.~.~.~.~.~.~.~.~.W.W.^.(.U.[.",
"~.~.~.~.~.~.I.|.}.I.^.~.~.~.~.~.~.~.~.~.~.~.~.~.~.~.~.~.~.~.~.~.~.~.~.~.~.~.~.~.~.~.~.~.~.~.~.~.~.~.~.~.~.~.~.~.~.W._.].W.!./.[.",
"~.~.~.~.~.W.^.I.Y.~.W.~.~.~.~.~.W.W.~.~.~.~.~.~.~.~.~.~.Z 9         & ~.~.~.W.~.~.~.~.W.~.~.W.~.~.~.!.I.~.~.~.~.~.U. XOXT.'.W.[.",
"~.~.~.~.~.~.W.~.^.~.~.~.~.~.~.W.^.^.W.~.~.~.~.~.~.~.~.~.*             C / ~.~.~.~.~.~.~.~.~.~.~.~.Y.^. XW.~.~.~.~.~.Y.T.(.'./.[.",
"~.~.~.~.~.~.~.~.W.~.~.~.~.~.W.^.I.Y.~.~.~.~.~.~.~.Q Q Q < 5 j j j 5 , 9 G Q Q !.~.~.~.~.~.~.~.~.~.Y.].+XT.~.~.~.~.~.~.^.!.(.U.[.",
"~.~.~.~.~.~.~.~.~.~.~.~.~.~.^.I.OX XI.~.~.~.~.~.Q.0   O 8.c.eXtX7Xx.8.      9 Q.~.!.!.~.~.~.~.~.~.!.W.I.~.~.~.~.~.~.~.~.~.^.W.>.",
"~.W.~.~.~.~.~.~.~.~.~.~.~.~.~.Y.}.].Y.~.~.~.Q.^ & % z z.wXeXtXtXtXeX7Xz.j .   * ~ (.~.~.~.~.~.~.!.~.~.^.~.~.~.~.~.~.~.~.!.(.T.[.",
"~.~.~.~.~.~.~.~.~.~.~.~.~.~.~.~.I.W.~.~.~.Q.^ t % B g.6XtXtXtXtXtXtXtX7Xp.v %   H K (.~.~.~.W.~.~.~.~.~.~.~.~.~.~.~.~.~.!./.W.>.",
"~.~.~.~.~.~.~.~.~.~.~.~.~.~.~.~.~.~.~.~./ ^ K o l V.eXtXtXtXtXtXtXtXtXtXwXc.l @   q | ( / ~.~.~.~.~.~.~.~.~.~.~.!.!.W.W.(.(.U.[.",
"~.~.~.~.W.~.~.~.~.~.~.~.~.~.~.~.~.~.~.~.*   - 7.6XtXtXtXtXtXtXtXtXtXtXtXtXtX6Xb $       ~ ).W.Q.!.~.~.!.~.~.~.~.!.!.(._.!.(./.[.",
"~.~.~.~.~.~.~.~.~.W.~.~.~.~.~.~.~.A t & 8 y.c.wXtXtXtXtXtXtXtXtXtXtXtXtXtXtXtXwXc.y.7   X X X | ^.~.~.~.~.~.~.~.^.U. X+XT.'.W.[.",
"~.W.~.~.~.~.~.~.~.~.~.~.~.~.Q.W A e u b a.S.6XtXtXtXtXeXtXtXtXrXtXtXtXtXrXtXrXtX6XS.a.b , O   H ~ (.!.~.~.~.~.!.!.!.!.W.!.'./.[.",
"~.~.~.~.~.~.W.~.~.~.~.~.~.Q./ Q   % l c.tXtXtXtXtXtXeX3XtXtXrXrXrXrXrXrXrXrXrXtXtXtXtXc.l %     H | !.~.~.~.~.~.~.~.~.~.~.(.U.>.",
"~.~.~.~.~.~.~.~.~.~.~.~.~.Q t + 5 Z.6XtXtXtXtXtXtXA.c.c.eXrXrXrXrXrXrXrXrXrXrXrXrXrXtXtXS.z.3     = '.~.~.~.~.~.~.~.~.W.~.~.U.>.",
"~.~.~.~.~.~.~.~.~.~.~.Q.U * - 8 V.eXtXtXtXtXtXrXeXr.r.0XrXrXrXrXrXrXrXrXrXrXrXrXrXrXrXrXeXwXV.8 $   w | (.Q.~.~.~.~.~.~.(.(.I.[.",
"~.~.W.~.W.~.~.~.~.~.~./ C o 7 8.0XtXtXtXtXrXrXrXZ.w.r.rXrXrXrXrXrXrXqXrXrXrXrXrXrXrXrXrXtXtXeX7.5     | (.~.~.~.~.~.~.~.!.(.W.>.",
"W.~.~.~.~.~.~.~.~.W.Y.^   2 y.wXtXtXtXtXrXrXrX0XM h.S.rXrXqXqXqXqXqXqXqXqXqXqXqXqXqXqXrXrXrXtX6X9.%    .| Q.~.~.!.!.!.!.!.(.U.[.",
"~.~.~.~.~.~.~.~.~.^.P X   l.4XtXtXrXrXrXrXrX7Xx.k Z.qXqXqXqXqXqXqXqXqXqXqXqXqXqXqXqXqXqXqXqXrXtX2Xa.  O J X.~.~.!.(.!.!.!.(./.[.",
"~.~.~.~.W.~.~.~.Y.H e o v 3XtXtXtXrXrXrXrXrXS.M e.J.qXqXqXqXqXqXqXqXqXqXqXqXqXqXqXqXqXqXqXqXqXrXrX2Xz . ) *.).^.!.!.!.!.(.).W.[.",
"~.~.~.~.~.~.~.~.Q.0 O $ 9.eXtXtXrXrXrXrXrXrXZ.k a.5XqXqXqXqXqXqXqXqXqXqXqXqXqXqXqXqXqXqXqXqXqXrXtXwX8.$ i  ...~.!.!.!.!.!.'./.[.",
"~.~.~.W.~.~.~.~.Q.X   , 7XtXrXrXrXrXrXrXqX5Xh., J.qXqXqXqXqX9X9X9X9X9X9X9X9X9X9X9X9X9XqXqXqXqXrXtXtX3X,   + *.(.!.!.!.~.~.(.U.[.",
"~.~.~.~.!.!.~.!./ X 4 @.tXtXtXrXrXrXrXqXqXi.B x 8XqXqX9X9X9X9X9X9X9X9X9X9X9X9X9X9X9X9X9XqX9X9XqXqXtXtXb 2 + &.'.(.!.W.!.~.!./.[.",
"~.~.~.~.!.!.(.( A   z p.tXtXtXrXrXqXrXqXqXB x V 8XqXqX9XqX9X9X9X9X9X9X9X9X9X9X9X9X9X9X9X9X9X9XqXqXrXtXy.j O g } ).(.].W.(.).W.[.",
"~.~.~.~.!.!.).~ X O N c.tXrXrXrXrXqXqXqXqXc 8 i.P.9X9X9X9X9X9X9X9X9X9X9X9X9X9X9X9X9X9X9X9X9X9X9X9XqXtXz.b     [ ).{.@XU.(.'./.[.",
"W.~.~.~.~.~.X.]     e.tXtXrXrXrXqXqXqXqXS.8 5 B.8X9X9X9X9X9X9XP.P.P.P.P.P.P.P.P.P.P.P.9X9X9X9X9X9X9XtXwX9.    { -.W.T.!.!.(.R.[.",
"~.~.~.~.~.~.*.[   2 p.tXtXrXqXqXqXqXqXqXB.7 8 8X9X9X9X9XP.P.P.P.P.P.P.P.P.P.P.P.P.P.P.P.P.P.9X9X9XqXrXtXy.%   %.:.!.^.!.!.(./.[.",
"~.~.~.W.~.~.[.{   5 a.tXtXrXrXqXqXqXqX9Xk.3 j 9X9X9X9XP.P.P.P.P.P.P.P.P.P.P.P.P.P.P.P.P.P.P.9XP.9X9XrXtXu.2 O <.5.!.!.!.(./.W.[.",
"~.~.~.~.~.~.-.{   8 g.tXrXqXqXqXqXqXqX8Xr., j 9X9XP.P.P.P.P.P.P.P.P.P.P.P.P.P.P.P.P.P.P.P.P.P.P.9X9XrXtXg.8   *X-X!.!.!.(./.W.XX",
"~.!.~.~.!.~.=.#.  8 a.tXrXqXqXqXqX9X9X8Xw.2 j 9XP.P.P.P.P.P.P.L.H.L.H.L.L.L.L.L.L.P.P.P.P.P.P.P.P.P.rXtXg.8   %X=X~.~.~.~.(.I.[.",
"~.~.~.!.~.~.;.#.  8 g.tXrXqXqXqXqX9X9X8Xw.1 j P.P.P.P.P.L.L.L.L.L.L.L.L.L.L.L.L.L.L.L.L.P.P.P.P.P.P.rXtXg.8   &X:X~.~.~.~.~.W.>.",
"~.~.~.~.~.~.;.#.  8 a.tXrXqXqXqXqX9X9XP.w.2 8 P.P.P.P.P.L.L.L.L.L.L.L.P.L.L.L.L.L.L.L.L.L.P.P.P.P.P.rXtXg.7   &X:X~.~.~.~.(.T.>.",
"~.!.~.~.!.~.;.#.  8 l.tXrXqXqXqX9X9X9X8Xw., 8 P.P.P.L.L.P.L.L.L.L.L.L.H.L.L.L.L.L.L.L.L.L.L.L.P.P.P.eXeXy.3   %X=X(.~.~.~.(.U.>.",
"~.!.~.~.~.~.-.$.  , u.tXrXqXqXqX9X9X9X8Xs.2 7 C.P.L.L.L.L.L.L.L.H.H.H.H.H.H.H.H.H.H.L.L.L.L.L.L.K.D.p.a < *   O d :X~.~.~.(.U.[.",
"~.~.~.~.~.~.-.{   @ e.rXtXqXqX9X9X9X9X9Xj.3 3 j.L.L.L.L.L.L.H.H.H.H.H.H.H.H.H.H.H.H.H.G.M.D.C.n.s.@.+.S G D     s ,X~.~.~.(.W.>.",
"~.~.~.I.W.W.-.{     8.7XtXrXqX9X9X9X9XP.B.7 1 w.K.L.L.L.L.H.H.H.H.H.H.H.H.H.H.G.N.D.M.n.d.s.s.V a q D I.R.U.X   s 1X~.~.!.(.T.>.",
"~.^.Y.|.`.W.*.[     b l.tXqX9X9X9X9X9XP.L.j # x G.L.L.L.H.H.H.H.H.H.H.H.H.H.F.v.V k . 9 9 9 9 Z R R.E.E.E.U.    d 1XT.!.!.(.U.>.",
"~.^.I.+X{.Y.)...} X 3 N tXrXqX9X9X9X9XP.P.n 1 # m.L.L.H.H.H.H.H.H.H.F.F.N.b.x u G Y U.U.R.U.R.R.R.E.E.E.R.R X   d 1X@X_.W.(.U.[.",
"~.!.~.I.Y.~.~.(.o.= $ 7 6XrXrX9X9XP.9XP.P.0.k . t.D.L.H.H.H.H.H.F.F.F.M.q.m S F R U.E.E.E.E.E.E.E.E.U.E.U.T     s ,X].~.~.~.W.>.",
"~.~.!.^.~.~.~.~.| w   % c.tXrXqX9XP.P.P.P.j.V O x n.H.H.H.H.H.H.F.F.N.f.a q R E.E.E.E.E.E.E.E.E.E.E.T.E.U.Y   ; f :XW.~.~.~.T.>.",
"~.~.!.~.~.~.~.~.(.*.i . l 7XtXtX9XP.P.P.P.K.j.. O t.m.H.H.H.F.F.F.N.b.o U I.E.E.E.E.E.E.E.E.E.E.R.T.Q R.R D X &X:X..W.~.~.(.T.>.",
"~.~.~.~.~.~.~.~.~.O.J X @ p.2XtXrX9XP.P.P.L.C.x   6 m G.H.H.H.F.F.f.n D U.R.E.E.E.E.E.E.E.E.E.R./ ! I.E.Y C   %X:X~.~.~.!.(.U.[.",
"~.~.~.~.~.~.~.~.~.X.K >   N l.eXrXqX9XP.P.L.D.t.# # k v.G.H.F.F.N.q.p R R.E.E.E.E.E.E.E.E.E.U.W.! ! U.E.Y r   %X=X~.!.~.~.(.W.>.",
"~.~.~.~.~.~.~.~.^.~... .O o 7.A.tXrXqXP.P.L.L.D.1   . k M.G.H.F.f.c t E.E.E.E.E.E.E.E.E.E.R.^ _ ! W E.E.D &   2.-X!.!.~.!.(.T.>.",
"~.~.~.~.~.~.~.~.I.~.~.(.o.X o 5 S.tXtXqX9XP.P.G.f.3     n d.K.qXm I T E.E.E.E.E.E.E.E.T.^ K _ ~ Y.E.E.T t     <.5.!.~.~.~.~.Y.>.",
"~.~.~.~.~.!.W.^.+X!.~.~.).=   o l z.2XtXtXqXqX9XK.y.v   # 8 B 3Xp G R.E.E.E.E.E.R.T.^ L ` ` ! T.R.E.E.t = ; $X4.*.Q.~.~.~.(.U.>.",
"~.~.~.~.~.~.!.~.}.~.~.~.(.y &   @ 8.p.S.wXeXrXqXqXA.u.2 O $ 6 a.e F E.E.E.E.R.U.W.^ ! _ ` ' ^ E.E.E.I.* X ; >X:...W.~.~.W.~.U.>.",
"~.~.W.~.!.~.~.!.I.~.~.~.~.~.G &     @ l l.6XeXeXeXtX3Xa.$     @ t Y E.R.E.T.E L _ _ _ ` Q / E.E.E.R.Z     : *XX.~.~.~.~.~.(.U.>.",
"~.~.~.~.~.~.~.~.~.~.~.~.~.W.Q./ ( & X . % 5 l v 8.7.N z .       Z Y T.^ ! ' ` _ _ L ^ T.R.E.E.E.I.F X   h 3.;.).~.~.~.~.~.(.I.>.",
"~.~.~.~.~.~.~.~.~.~.W.~.~.~.~.!.(.K A H X o $ 2 7 4 2 2 O       y L ! ' ` ` L ! ^ W T.E.E.E.E.R D 0   h %.:.X.~.!.!.!.!.~.(.U.[.",
"~.~.~.~.~.~.~.~.~.~.~.~.~.~.~.~.~.Q.(.| w & & X + = = X X + +   w i ) _ L ! ^ T.R.E.E.E.R.R.U.Z *   + 1.:...~.~.^.!.!.!.~.^.W.>.",
"~.W.~.~.~.~.~.~.~.~.~.~.~.~.W.!.~.~.~.~.~.(.(.).'...X.*.-.4.1.  & = w G U.E.E.E.E.E.E.U.T F X     + 5.X.(.~.~.~.W.!.!.!.!.(.T.[.",
"~.~.~.~.~.W.~.~.~.~.~.~.~.~._.~.^.!.~.~.~.~.~.W.!.!.(.!.(.(.). .= O X X & 9 r Z C C 0 & X X     g &...Q.!.~.~.W.!.!.!.^.!./.W.>.",
"~.~.~.~.~.~.W.~.~.~.~.~.~.~.#XW.I.~.~.~.~.~.~.~.~.!.~.~.W.~.~.'.H H i     X & * 9 * &     O ) J ] '.^.~.~.~.~.~.!.!.!.~.~.(.U.[.",
"!.^.~.!.~.~.~.~.~.~.~.~.^.~.I.{.oXI.^.~.~.~.~.~.~.~.~.~.~.~.~.~.(.(.| = + + + + : + ; + + > -.O.'.!.W.~.~.~.!.~.~.~.~.~.~.(./.[.",
"~.I.!.~.~.~.~.~.~.~.~.~.I.!.Y.{..XI.~.~.~.~.~.!.~.~.~.~.~.~.~.~.!.!.~.&.&.,.6.<X;X3.*X*X3.3.-.(.!.!.~.W.~.~.!.~.!.~.~.~.(.).W.[.",
"Y.OX_.W.~.~.~.~.W.~.~.I.@X`.W.Y.I.^.~.~.~.~.~.~.~.!.~.~.~.~.~.!.!.!.~.)./.[.OX( | O.O.'.'.'.(.!.!.!.W.^.^.~.~.~.~.~.!.~.!.'./.[.",
"W..X^.W.~.~.~.~.~.~.~.W.{.^.W.~.^.W.~.~.~.~.~.~.~.!.~.~.~.~.~.~.~.~.~.~.~.W.I.^.~.~.~.~.!.~.~.!.!.^.U.oXoXU.^.!.!.~.~.!.!.(.R.[.",
"~.I.W.~.~.~.~.~.~.~.~.~.T.W.~.~.~.~.~.~.~.~.W.~.~.~.~.~.~.~.~.~.~.~.~.~.!.~.^.W.~.!.~.~.~.~.~.~.~.~.!.W.!.~.!.!.~.~.~.~.!.(./.[.",
"~.^.~.~.~.W.~.~.~.~.~.~.~.~.~.~.W.~.~.~.~.~.!.~.~.!.!.~.~.~.~.W.~.~.W.~.~.~.~.~.~.~.~.~.~.~.~.~.~.~.!.~.~.~.~.~.~.~.~.~.(./.W.[.",
"~.~.~.~.~.~.~.~.~.~.~.~.~.~.~.~.~.~.~.~.~.~.~.~.~.~.~.~.~.~.~.~.~.~.~.~.~.~.~.~.~.~.!.~.!.~.~.!.~.~.!.~.~.!.~.~.!.~.!.!././.W.XX"
};
