/* XPM */
static char *result[] = {
/* columns rows colors chars-per-pixel */
"64 64 219 2 ",
"   c #000000",
".  c #02040C",
"X  c #04110E",
"o  c #010013",
"O  c #00001A",
"+  c #091411",
"@  c #081413",
"#  c #032C0B",
"$  c #06381B",
"%  c #000025",
"&  c #00002D",
"*  c #010B28",
"=  c #021A24",
"-  c #000637",
";  c #001635",
":  c #0C3723",
">  c #153B21",
",  c #282C2C",
"<  c #044E0F",
"1  c #03570F",
"2  c #084C16",
"3  c #0B4D1B",
"4  c #085014",
"5  c #00790A",
"6  c #066C1A",
"7  c #067A15",
"8  c #06731B",
"9  c #08791A",
"0  c #0B4823",
"q  c #115131",
"w  c #0A6B24",
"e  c #0D7529",
"r  c #13752F",
"t  c #137637",
"y  c #00054A",
"u  c #000159",
"i  c #021858",
"p  c #01215E",
"a  c #0E235E",
"s  c #000067",
"d  c #011573",
"f  c #0D2564",
"g  c #0D2E6C",
"h  c #0F316C",
"j  c #1E3063",
"k  c #12336D",
"l  c #1B356F",
"z  c #23386F",
"x  c #155949",
"c  c #165B4E",
"v  c #195856",
"b  c #136141",
"n  c #167D4B",
"m  c #197C53",
"M  c #197F59",
"N  c #1E4C62",
"B  c #1D5266",
"V  c #21466E",
"C  c #234C76",
"Z  c #247477",
"A  c #018401",
"S  c #018800",
"D  c #02850C",
"F  c #058615",
"G  c #088517",
"H  c #058817",
"J  c #078618",
"K  c #088618",
"L  c #08881A",
"P  c #168816",
"I  c #11871E",
"U  c #0A8621",
"Y  c #0B8922",
"T  c #0D842B",
"R  c #148722",
"E  c #198723",
"W  c #1C8826",
"Q  c #1B8729",
"!  c #108335",
"~  c #12823A",
"^  c #23892B",
"/  c #2B8B33",
"(  c #308C37",
")  c #358D3C",
"_  c #148041",
"`  c #3B8E42",
"'  c #46924C",
"]  c #4C9453",
"[  c #54975A",
"{  c #57985D",
"}  c #5C9A62",
"|  c #082686",
" . c #112D8A",
".. c #10358E",
"X. c #2D3997",
"o. c #173EA0",
"O. c #322EA2",
"+. c #3230A1",
"@. c #1F4997",
"#. c #244D8F",
"$. c #2B618B",
"%. c #287184",
"&. c #297086",
"*. c #2F53A8",
"=. c #306AAC",
"-. c #3876B2",
";. c #46579C",
":. c #4358A7",
">. c #4E61A0",
",. c #5666A4",
"<. c #5566A8",
"1. c #4A62B1",
"2. c #556AB4",
"3. c #5C77BB",
"4. c #606EB1",
"5. c #6378BA",
"6. c #647CC0",
"7. c #3A85BA",
"8. c #3D84B9",
"9. c #4087BA",
"0. c #438DBD",
"q. c #4792BE",
"w. c #4893BF",
"e. c #6F85BD",
"r. c #499BC1",
"t. c #549FC4",
"y. c #6982C2",
"u. c #6D8AC4",
"i. c #778CC4",
"p. c #6393D1",
"a. c #49A3C3",
"s. c #57B7CE",
"d. c #54BCCE",
"f. c #59BCD1",
"g. c #62B5CE",
"h. c #69A7DA",
"j. c #70B0D7",
"k. c #76ADE2",
"l. c #7DB9E6",
"z. c #52C1CE",
"x. c #56C2D1",
"c. c #5BC4D3",
"v. c #5DC9D6",
"b. c #63CBD5",
"n. c #67C9D8",
"m. c #67D0D9",
"M. c #6CD3DA",
"N. c #6FD9DD",
"B. c #71D7DE",
"V. c #72DCDD",
"C. c #808BC3",
"Z. c #8394CA",
"A. c #8A9CCD",
"S. c #86A0CD",
"D. c #8AA2CE",
"F. c #97A3CF",
"G. c #86A7D7",
"H. c #92AAD5",
"J. c #87B1DC",
"K. c #96B2DC",
"L. c #9BB4DB",
"P. c #ABB8DE",
"I. c #89B9E6",
"U. c #9AB5E1",
"Y. c #98B7E2",
"T. c #A3BCE2",
"R. c #A9BFE1",
"E. c #B3BDE1",
"W. c #84C0EC",
"Q. c #85C9F0",
"!. c #8CCCF5",
"~. c #96C8F1",
"^. c #8FD3F9",
"/. c #8DDBFE",
"(. c #94D3F9",
"). c #94DDFF",
"_. c #99DEFF",
"`. c #A9C4E2",
"'. c #B8C7E6",
"]. c #B4CDEA",
"[. c #BDD9EF",
"{. c #A1CEF0",
"}. c #A8D5F2",
"|. c #A2DFFF",
" X c #B3DAF7",
".X c #BDDCF2",
"XX c #96E1FF",
"oX c #9DE0FF",
"OX c #A4E1FF",
"+X c #ACE4FF",
"@X c #AFE8FF",
"#X c #B4E5FE",
"$X c #B8E5FD",
"%X c #B3E9FF",
"&X c #BBEBFF",
"*X c #BFF0FF",
"=X c #CAD4ED",
"-X c #C2DAEE",
";X c #CADDEE",
":X c #C4DDF3",
">X c #C8DEF0",
",X c #D2DDF0",
"<X c #CAE7F6",
"1X c #CEE6F6",
"2X c #C4EDFF",
"3X c #CBEFFF",
"4X c #D8E7F4",
"5X c #D3ECF9",
"6X c #C5F1FF",
"7X c #CDF1FF",
"8X c #D5F4FF",
"9X c #DDF6FE",
"0X c #D7F9FF",
"qX c #DCF9FF",
"wX c #E5F5FA",
"eX c #EBF5FB",
"rX c #E1FCFF",
"tX c #EAFBFF",
"yX c #F3FEFF",
/* pixels */
"K D / Q F G G J K K G K K K K K K J K K G J K J K K G J K K J K K J K K K K K K K J K K J K K K K K K K K K K K K K K K K U S _ ",
"I A { ` A I G J K K D F K K K G G K K K K K G K K K K K K K K K K K G G K K K K K K K K K K K J J K J K K K K K K K K K K L D M ",
"K K A D K K G I I D / Q F K K K K K K K K G J K K K K K J K K J K J K H G H K K K J K K K K K K G H K K K G K G K K K K L Y D _ ",
"K G I K K K K A A A [ ` A K K J K K G K K K K K K J K G K K K K K K K K G J K K K K K G K J K K G J K K K K K K K J K K L T K _ ",
"K K G K K K A ` ' A A D K K K K K K K K K K K K K G G K K K K K K G H K G K K K G K K K K K G K K K K K G K K K J K F F L U A _ ",
"K K K G K K A ( ` A I K G K K K K K K K J G K J J K K K K K K K K G G K K K K K K J K J J K K J K K K L K K K K K F I ^ F U K _ ",
"K K K K K K I D A K G J K J K K G K J K K K K K K G K K J K K J K K K K K K K K K K K J K G K K K K F A L G G G L A ` { A Q D _ ",
"K K K K K K G K L K K K K G J G I L G K G K K K K K J K J K K K K K J K K K K K K K G K K K K K K F I ) F K K K K K F A U T U _ ",
"K K J K K K K G K K K K K K G I A A L G G G K J G G K G J K K K K G K K K K K K K K K K K K K K J F W } D K K K K K K I K U A _ ",
"J K K K J K K J K K K K G K L A ' ' A I K G K K G G I G K K K K G G G G K K K K K J K K K K J G J G F A K J K K K K G K K L K _ ",
"K K K K K K K K K K K K G G K D ) / D K K K K K K K S K K K K K L K K K K K K K K K K K K K L U F D G R K K K K K K K K L T D _ ",
"K K K J K K K K K K K K G G G I A A I K K K K K G 5 ] r 7 7 7 7 7 7 7 7 7 7 7 7 7 7 7 7 9 9 e e t T L K K K K K K K K K L T U _ ",
"K K K K K K K K K J K K K K K G K L K K K K P 9 # . , + + + + @ + + @ @ @ @ @ @ + + @ @ @ X X   V $.n S L K K K J G J J K U S _ ",
"J K K J K G J G G K K G K K G K G K K K K K 9 > * - & - & * & & & & & & & & & & & & & & & & - %   +.%.S U K K K K J G G K U K _ ",
"K K K K K J K G K K K J G K K K K K K K K 8 0 s ..>.,.,.,.,.,.,.<.,.,.,.,.,.,.,.<.,.,.,.<.;. .i   O.&.S U K K K K A ' { A Q D _ ",
"K J K K K K K J K K K K K J K K K K K K w > s C.A.'.,X,X>X;X;X;X<X;X;X;X>X>X>X>X<X;X;X,X'.1.| f   +.&.S U K K K K K L Y L T U _ ",
"K K K K F K K K K K G K J K J K K K K 6 > u i.4XR.<XtXqXrXrXqXrXrXqXrXqXrXrXrXrXrXrXyXyXF.*.=.k   +.&.S T J J K K K G F K U A _ ",
"K F K K K K K K K K K K K K K K J K w : u 4.,XtXT..X0X8X8X0X8X8X0X8X0X8X0X8X8X8X8X9XeXP.*.w.0.k   +.&.S U K J K J K K K J U D M ",
"K K K K J K K K K K J K K K G K K 8 $ u 2.=XtX8XL.$X0X8X0X0X8X0X0X8X0X0X0X8X0X8XqXtX'.o.8.n.r.g   +.&.S U G K K K G K K L Y D _ ",
"K K K K H K K K K K K K K J K K 6 : y <.,XtX8X8XL..X0X8X8X8X8X8X8X0X8X8X0X8X0XqXyX;X1.-.b.B.0.h   +.&.S U K K J K K J K L T K _ ",
"K K K K K K K H K K F J J J H 8 : y ;.=XyXrXqXqXY.<XqX9X0X0X9X9X0X9X0X0X0X9XtXyX4X4.=.f.m.N.q.g   +.&.S U J K K K K K K K U S _ ",
"K K K K K K G G J J E J J J 8 : y X.E.eXeXwX9X9XL.>XrX9X9X9X9X9X9X9X9X9XwXwXeX4XC.*.s.c.m.M.0.g   +.&.S U J K K K K K K K U D M ",
"K K K K K K G K H R } F K 9 2 -  .2.Z.A.A.A.A.A.3.i.A.Z.A.A.A.A.A.Z.A.A.A.F.A.y.o.t.n.d.N.m.7.h   +.&.S U K K K K K K K K T D _ ",
"G H K K K K K K K J D J U w = i *.5.y.y.y.y.5.e.1.3.y.e.e.e.y.y.y.e.e.e.6.u.6.*.-.b.f.b.V.c.7.k   +.&.S U L K K K K K K K T K _ ",
"G K K K K K K K K K K H T t % i i.-X-X-X-X-X-X.XS.`.>X[.-X-X[.-X.X[.-X-X[.[.].3.8.v.x.M.M.d.7.k   +.&.S U K K K K K J K J U S _ ",
"G K K K K K K K K K K D T b % f D.rXqX7X&X&X&X&XJ.}.6X0XrXrXrX8X&X&X&X2X8XtX5Xe.-.d.v.B.b.x.7.k   +.&.D U K K K K K K J K L K _ ",
"K K K K K K G H K K K G T b % p D.9X3XOX/./././.h.Q.%X8X9X9X8X+X)././.).$XqX5Xu.8.s.n.N.v.c.0.k   +.&.A U L K K K J J K L T D _ ",
"K K K K K G G J K K L D ! c % p D.8X$X).).).).).h.}.qXqX9X8X+X).XX).).).$XqX<Xu.7.d.B.M.x.b.q.k   +.&.A U K K L D / } S Y T U _ ",
"J K K K K K K K K K K D ! c % f D.8X@X).).).).oXk.;XrX9X8X@X).).).)._.$X8XrX1Xu.8.c.B.c.x.M.w.g   +.&.S U J J K K K I J K U S _ ",
"K K K K K K K K K K I D ~ v % f A.8X@X).).).).$XH.;XrX8X$X).).).).).$X8XqXrX1Xu.8.n.B.d.b.N.q.h   +.&.S U J K K K K J K K U K _ ",
"K H G K K K K J K K K S ~ v % i D.8X%X).).).%X8XL.>X0X$X).).).).XX%X5X9X9XrX1Xu.9.M.m.z.M.V.q.h   +.&.S U J K K K K K K L Y D _ ",
"J K G G K K K K K K K D ~ v % f D.8X%X).).@X8XrXL.-X&XoX).).).).@X5X9XrX9XrX1Xu.9.M.x.c.N.V.q.k   +.&.S U K K K K K J L L ! L _ ",
"K J K K K K K K K K K D ~ v % p A.8X%X).+X5X9X9XL.{.OX).).).).+X3X9X9XrX9XrX1Xu.9.n.c.m.V.B.r.g   +.&.S U K K K J K K K K U A _ ",
"K K K K K J K K K K K D ~ v % p D.8X@X@X7X9XrX9XK.Q.XX).)._.OX5X9XrX9X9X9XrX1Xu.8.c.d.N.V.V.0.h   +.&.S U K K K K K K J J U D M ",
"K K K J K J K K K K L D ! v % p D.0X2X3XqXrX0X&Xj.Q.XX).).OX3X9X9X9X9X9X9XrX1Xu.-.d.M.V.V.M.8.h   +.&.S U K K K K K K K L Y D _ ",
"K J K K K K K K K K L D ! c % p A.9X8X9XwX0X2XOXh.Q.oX).OX3X9X9XrX9XwX9X8X8X1Xu.7.d.M.V.V.m.7.k   O.&.S U K K K K J K K L T K _ ",
"K K J K K K K G K K K D ! c % p D.9XrX9XqX3X_.).h.Q.).OX2X9X9X9X9X9XrX8X&X2X1Xu.-.f.B.V.V.x.7.k   X.Z S T G K K K K K K K U S _ ",
"K K K K G K K K K K I D ! c & f D.8XrX8X3X|.).).h.Q.OX3X9XrXrXwXrXrX8X$X|.&X5Xu.8.n.V.V.M.d.7.k   N m S A K K K K K K K K U D M ",
"J J K D G G K K K K K D ! c % a A.9X9X2X|.).).).h.W.$X5X5X5X5X5X5X5X#X(.^.%X:Xe.-.M.B.m.c.d.9.k   v n P ] D K A F K I K K T D _ ",
"K G F ^ E G K K K K L D ! c % p A.9X8X|.).).).^.p.G.Y.T.T.T.T.T.Y.K.k.k.k.Y.K.2.-.g.g.s.a.a.-.g o x t P ] F F ( W F A K L T K _ ",
"K I A { ' A K K K K K D ~ c % p D.8X%X).).)./.l.K.].:X:X:X:X:X:X X!.!.~..X:X].3.-.g.g.t.a.w.@.y O q ! D A I A { ) A } E G L S _ ",
"K J K A D G K K K K K D ~ v % p D.8X@X).).).W.G.[.9X9X9X5X9X0X2X|.).+X3X0XqX1Xu.9.n.N.x.c.-.d * q r G G I K L A D K ) L J U D M ",
"K K J L K K K K K K I D ~ v % p D.8X%X).).^.J.].5XrX9XrXwX9X3X|.).OX3X9XqXqX1Xu.0.M.M.x.s.#.-   w Y G G K K H L K K A K L T D _ ",
"K J K J K K G K K K K S _ B % p D.8X%X).^.I.`.3X9X9X9X9X9X3X|.).OX3X9X9X7X6X1Xu.8.M.b.f.-.s   3 J L G K K K K K K K K K K T K _ ",
"K K K K K K K K K K K S _ B % f D.0X%XoX~.Y.:X9X9XrX9X0X5X|._.|.2XrX9X3X@X&X1Xu.9.m.v.r...% 2 e U J J J K K K K K H K K K U S _ ",
"K J G K K K G K K K K S m C O i D.8X%X~.G.].8XqX9X9X9X8XOX).|.2X9X9X5X+X_.&X1Xu.8.n.f.@.p   e L J K K K K K K K K K K K K U K _ ",
"K G K K K K K J I G L S m C O f D.8X XY.`.5XrX9X9X9X8X+X_.|.2X8X9X3X%X)._.*X1Xu.8.b.q.d o # F K J K J K H K K K K K K K L T D _ ",
"J K K K K K K K 5 J L A m #.O p D.5X].U.1X9X9XrX9X8X+X).|.&X9XrX5X$X).).oX&X1Xu.0.f.@.- @ G K G K K K K K K K K K K K K K T Y _ ",
"K K G J J K K D ] E J S M #.o a A.[.K.[.9X9X9XqX8X@X)._.2X5X9X5X$X).).).OX8X1Xu.-.=.g   w L G K K K K J K K K K K K K K K U S _ ",
"K K K K K K K F ' R K S m C O j i.L.].8XrX9X9X8X$XOX_.&X8XrX8X&XoXOX_.OX2XrX1Xu.*. .*   8 K G J K G K K K K K K G H K K K L D M ",
"K K K K K K J K A J K S _ C % a 3.L.5XqX9X9X9X9X9X8X8X9X9X9X9X0X8X8X5X0X0XrX1Xy.| i   6 K K K K K K K G G K J K G K K K L Y D _ ",
"K J K G K K K K I K K D _ v % i *.i.H.H.H.H.H.H.H.H.H.H.H.H.H.H.H.H.H.H.H.H.G.:.d = 6 K K K K K J K K K H K K K G K K K L T K _ ",
"K G G K J K K K K K K D ~ v . ; f z l l l l z l l l l l l l l l l l l k l l l f -   J L K J K K K J K K K K K K K K K K K U S _ ",
"J K K K K K K K K K K H T t 0                                                     1 J K K K K G K K K J K J J K K K K K K U D M ",
"K G K K K K K J K K K K F T t 2 3 3 3 3 4 4 3 4 2 3 3 3 3 3 3 0 3 3 4 4 4 4 4 < < G K K K G K K K K K K K J K K K K K K K T D _ ",
"K K J K J K K K K G G G G G 5 U Q T T L L U U L L T T T L T T T T T L L L U L K K K K J J K K G K J K K K K K K K K K K K T K _ ",
"G G K J K K K G K K G G K D } E A K G K K K G K G G F G F H H F F G G G G G K G G J J K K J J K K K K K K K J K K K K K K L S _ ",
"G L K J G K K K K K G F I G ( W ` D K K K K K K K K K K K K G K K G K K G G A R I G G K G K K K K K K K J K K K K K H K K Y K _ ",
"L A F G K K K K G K H I A F A ^ { A K K K K K K K K K K K K J K K K K K G E ^ ] ] A I K K J K K K K K L K K K K K K K K H T D _ ",
"F ` Q F K K K K K K I A ] / D F A L K K K K G K K K K K K K K K K K K K F ^ } A G K J G K K K G K G K A A I K K K K K K L T Y _ ",
"A { / A L G K K K K L A ' Q D K P J K K K K K K K K K H K K K K K K J K G F A K G K K K K J G K K I A ' ] A I K K H K K L U S M ",
"K 5 F K K K K G K K L K A F K K K K K K K H K K K K K K K K J K K K K K G G I K K K K K K K K K K K F ^ ^ F K K K K K K J U D _ ",
"J I G G K K G L K K K G I K K K K K G K K G K K K K K K K J J K J K J K K K G K J K K K K G K K K K K D D L H K K K K K K T D _ ",
"K J K K K G K K G G G K K K K K K G G K K K G K K K G K K K K K K K K K K G K J K K G J K K K K K K K K L K K K K K K K K T K _ "
};
